<svg xmlns="http://www.w3.org/2000/svg" viewBox="0 0 514.67 92"><defs><style>.cls-1{isolation:isolate;}.cls-2{fill:#a1e5d5;}.cls-10,.cls-11,.cls-12,.cls-13,.cls-14,.cls-15,.cls-17,.cls-18,.cls-19,.cls-2,.cls-20,.cls-21,.cls-22,.cls-3,.cls-4,.cls-5,.cls-6,.cls-7,.cls-8,.cls-9{fill-rule:evenodd;}.cls-3{fill:#a1e5d5;}.cls-4{fill:#a1e5d5;}.cls-5{fill:#a1e5d5}.cls-6{fill:#a1e5d5;}.cls-7{fill:#a1e5d5;}.cls-8{fill:#a1e5d5;}.cls-9{fill:#a1e5d5;}.cls-10{fill:#a1e5d5;}.cls-11{fill:#a1e5d5;}.cls-12{fill:#a1e5d5;}.cls-13{fill:#a1e5d5;}.cls-14{fill:#a1e5d5;}.cls-15{fill:#a1e5d5;}.cls-16{opacity:0.5;mix-blend-mode:multiply;}.cls-17{fill:#a1e5d5;}.cls-18{fill:#a1e5d5;}.cls-19{fill:#a1e5d5;}.cls-20{fill:#a1e5d5;}.cls-21{fill:#a1e5d5;}.cls-22{fill:#a1e5d5;}</style></defs><g class="cls-1"><g id="_ÎÓÈ_1" data-name="—ÎÓÈ_1"><path class="cls-2" d="M52.18,33.42c-10-1.45-20.29-.67-30.4-1.38-2.17-.15-4.49.13-6.22-1.16-1.16-3.43-.23-4.87,5.28-6.56,14.54-4.47,28.74-1.94,43.17-1.1A95.31,95.31,0,0,1,83.19,26c3.27.85,6.9-.44,10.11-1.55.8-.28.12.28.55-.19s-.59,0-.87-.2C78.76,23.3,64.76,21.62,50.77,20c-2.39-.27-4.86-.51-6.89-1.62L14.15,15.9c-1.43-2.58,1.75-2.71,3.65-3.4,2.95-1.06,6.54-.84,9.31-2.32,7.11-1.1,14,0,20.91,1a7.71,7.71,0,0,0,6.22.85c14.51,1.21,28.85,3.44,43.53,3.65,3.28.05,6.52.26,9.78,0C89,16.22,70.9,13.33,52.61,11.91c-8.33-2.34-17.47-1.3-25.94-3.12L8.31,7.31C15.36,4.6,23,5,30.51,5.13c6.89.08,13.78.65,20.61,1.32,17.95,1.72,36.06.74,54,1.8,2,.12,4,.18,6,.27.83,0,.81.07,3.57,1.92,1.06.7,2.47.62,3.8.62,19.83,0,39.64-.11,59.46,0,25,.19,49.89.67,74.84.88,13.37.1,26.75-.21,40.11-.16,24.06.06,48.13.26,72.19.35,13.36.06,26.73.13,40.1,0a656.75,656.75,0,0,1,76.52,3.51c5.49.59,10.92,1.47,16.47,1.79,1.54.09,3.51.19,3.37,1.66s-2.15,1.41-3.67,1.48a69.59,69.59,0,0,1-10-.32c-1.62-.16-3.18,0-2.6,1.73-.35,0-.7-.07-1.07-.09-10.25-2.9-21.1-2.16-31.76-2.68-14.62-.55-29.13-1.61-43.84-1.24-14.41.37-28.88-.47-43.35-.37-9.77.07-19.56-.07-29.34-.13-12.67-.07-25.34,0-38-.28,12.47.33,25,.18,37.42.3,18.24.29,36.5-.08,54.71.35,4.27.89,6.65,3.58,9.77,5.49,3.57,2.2-.67,3.41-2,5-.8,1-3.8.76-2.72,2.59a2.6,2.6,0,0,0,2.25.84c2.41-.27,1.19-1.72,1.55-2.67.87-2.24,3.18-3.92,2.77-6.79-.25-1.82,4.26-3,7.41-1.25,3.7,2.09,2.2-.91,3.11-1.53,2.89-3.36,7.35-.63,10.89-1.46,1.71.68,3.43,1.75,5.18,0a12.93,12.93,0,0,1,5.45.67c4.74,3.05,13.49,3.7,19.91,1.46a5.24,5.24,0,0,1,2.78,0c2.78,2.2,7.46,2,10.4,4.17a4.87,4.87,0,0,0,4.54-.4c2-1.48,3.52-.76,5,.46.06,3.41.32,6.83-1.91,10-4.86,2.89-9.21,2.15-13.66-.71-2.53-1.62-4.68-4-9.24-.86-3.74,2.58-6.33-1.34-9.27-2.84.65,1.23,2.85,1.67,3.19,3.05.49,2.08-.5,4.12-3.59,3.28-3.68-1-5.6.14-8.29,1.36-3.26,1.47-6.82,1.8-9.06-1.31-2-2.81-5.24-3.14-9.09-2.51-5.25.87-9.57,3.74-15.56,3.37,3.57,1.58,6.92,2.75,10.11,4.13,1.59.68,3.16,1.4,2.44,3-.61,1.37-2.19,1.95-4,2.2-3.39.46-6-.82-9.24-2.19,1.17,1.65,3.46,3,1.34,4.53-1.66,1.24-3.28.12-4.81-.44-3.4-1.23-6.25-1.54-8.14,1.61a4.55,4.55,0,0,1-5.33,2c-2.64-.69-2.68-2.32-2.25-4,.3-1.22,1.19-2.46-.14-4-2.67.54-2.82,2.28-2.78,3.66.09,4-2.1,6.09-8.45,5.59,6.94,4,10.79,3.69,16.29-.84a11.87,11.87,0,0,1,8.16-2.91c10.5.66,19.14-3.45,28.53-5.51,5.57-1.23,5.84-1.4,6.9,3.23a3.59,3.59,0,0,1-.61,1.28c-1.73,1.92-4,2.76-7.28,2.09a7.67,7.67,0,0,0-5.66.6,8.34,8.34,0,0,1-1.66.57c-5.3-.55-7.87,2.24-10.31,4.22.17-.08-.67.55-.31.37,10.87-5.4,10.56,1.59,12.73,5.84a3.12,3.12,0,0,1-.4,1.14c-.37.59-1.35,1-1.17,1.74,1.79.44,3.56-.14,5.32.11,2.18.3,3.6,1.16,4.23,2.66s-1.46,2-2.3,2.92c-3.52,4-7.23,5.29-12.74,1.82-.86-.53-2.61,0-3.91-.19-3.52-.43-6.41-1.37-3.56-4.35,1.88-2,1-3.55-.59-5.2-.29-.44-.13-1-.44-1.33s-.5.42-1,.46c-1.64.63-5.13.94-3.9,2.5,4.19,5.34-3,5.49-6.08,6.7-3.7,1.45-8.29,2.35-12.66.58-.88-.39-1.49-1.74-2.85-.39-.37,3.61,3.44,3.84,5.77,2.54,6-3.34,10.23.68,15.21,1.24a2,2,0,0,1,1.91,2.29c-.42,1.94-1.93,3.16-4.86,3.24-3.89.06-7.71.8-11.61.33-1.48-.54-3-.94-4.53-.11-1.58.43-3.39.3-4.88,1a8.05,8.05,0,0,1-3.75-.13c-3.8-2.29-8.18-.5-12.24-.71-9-.46-18.05-1.37-27,.32a3.64,3.64,0,0,1-2.44-.13,15.58,15.58,0,0,0-10.91-.21,4.27,4.27,0,0,1-2.55,0c-5-1.49-10.34-.42-15.49-.91-2.39-.23-4.84.36-7.22-.25-1.79-3.65-1.79-3.65,5.83-5.32C291.3,73,289.29,70.55,285,70c-2.63-.36-3.51-2-2.49-3.74,1.58-2.64,0-4.48-2.17-6.52-4-3.77-8.56-7.52-5.69-12.95.63-1.17.06-2.58-2.07-2.18s-5.35-2.36-6.72.87a3.33,3.33,0,0,1-4.19,2.28c-2.36-.46-2.6-2-2.69-3.49s0-2.89-1.16-4.17c-1.74-1.92-2.65-3.7.88-5.25,1.31-.57,1.47-1.76.19-2.42A2,2,0,0,0,256,33.5c-1.51,4-4.6,3.74-8.25,1.58-1.72-1-2.63-1.41-3.8.49-.66,1.11-2.78,1-4.07.14-3.69-2.48-7.55-1.5-11.1-.11-2.67,1-5.78.58-8.26,1.68-1.38.63-3.59,1-2.79,2.77.6,1.28,2.21,1.13,3.74,1.42,9,1.77,17.49,4.58,23.61,9.81,3.1,2.66,1.7,6.72-1.89,8.56s-8.7,1-12.27-2c.12,2.27-.76,4.67,4.33,4.34,1.46-.09,3.14,1.19,3.19,2.19.14,2.84.53,5.44,2.61,8,1,1.26-1.58,2.36-3.37,2.1-4-.58-5.55,1.29-7.36,3.09-9,2-11.33,1.34-15.2-4.37-.39-.58-.58-1.22-1.44-1.53-9.1-3.2-12.76-5.48-17.94-11.27A4.62,4.62,0,0,0,194,59a2.87,2.87,0,0,0-1.94-.19c-3.44,1.29-7.26,1-10.9,1.42-1,.14-1.57,1-1.94,1.93,6.82-2.79,11.11-2.37,14.34,1.25.86,1,1.62,1.92.8,3.1-1.14,1.65-10.47,5.12-13,4.51-3.3-.77-4.65-.35-4.08,2.28.78,3.62-2.43,4.26-6.44,4.46-13.58.66-27-1.06-40.58-1.06-11.29,0-22.48-1.38-33.6-2.71-3.06-.36-6.21-.51-9-1.62-2.49-2.26-5.15-3.89-9-1.37-5.71.8-11.14-1.84-16.88-.68a7.25,7.25,0,0,1-3.95-.27c-2.09-2.42-5.45-2-8.61-1.92-5,.06-10,.09-14.78-1.27-5.53-5.24-5.54-5.51-.19-10.52a21.12,21.12,0,0,0,2.48-2.83c.55-.7,1.15-1.49.24-2.18a3.06,3.06,0,0,0-3.57.06c-5.29,3.88-7.43.94-9.55-2.16a8.14,8.14,0,0,1-3.62-.56,1,1,0,0,1-.16-1.29,5.49,5.49,0,0,1,3.85-1.72c4.23.07,6.12-1.28,8.14-4,2.31-3.08,7.81-3.63,12.48-3.49,3.68.1,2.52,2.47,2,4.13C45,47.15,45,47.15,52,47a6.78,6.78,0,0,1,3.8.7c5.41,3.8,12.9,5.71,17.66,10.11.93.87,2.19,1.58,2.64,2.71,1.94,5,3,5.23,9.51,1.72-.61-.68-1.56-.42-2.35-.35-2.6.23-5.42.29-5.6-2.1-.17-2.17,2.6-2.64,5.09-3.06,2-.35,5.87,1.48,5.76-1.43-.1-2.64.43-6.16-3.9-7.58-2.9-.94-4.61-1.91-4-4.18.7-2.59,3.93-2.48,6.41-2.45,5.8.08,11.46-.77,17.22-1a9.47,9.47,0,0,1,2.82.22C114,41.72,120.45,44.06,127.7,45c4.08.56,7.67,2.93,12.3,2.85a1.84,1.84,0,0,1,1.79,1.26c.22.89-.45,1.48-1.49,1.92-1.64.7-3.94.32-6,1.95,4.61.69,8.29.15,11.41-1.43,1.93-1,3.65-2.15,5.88-1.17,3,1.29.21,2.78-.19,4.17a3.66,3.66,0,0,0,.5,3.17c4.44-1.82,4.21-5.7,7.63-8s-2-5.71-1.46-8.91a10.19,10.19,0,0,1-7,3.29,79,79,0,0,0-12.35,1.94c-2.25.53-4.43.58-6-1-1.2-1.23-2-2.6-1.06-4,1.34-2.18,3.78-.88,5.81-.77a2.84,2.84,0,0,0,2.39-.55c-2.06-2.86-2.06-2.86-6.68-4.75-1.18,1.37-.48,3.14-1.83,4.44a3.8,3.8,0,0,1-2.55.67,13.08,13.08,0,0,0-6.37.06c-17.42.38-34.52-1.64-51.57-3.69C64.61,35.65,57.9,36,52.18,33.42Z" transform="translate(0 -5.05)"/><path class="cls-3" d="M485.55,22l-.23,0c2.9,1.27,6.33,1.24,9.52,1.87-.35,1.37-2.81,1.59-2.59,3.21s0,3,2.94,3c3.07,0,2.84.81,2.21,2.61-.51,1.46.55,3.22,2.68,4.09,3.31,1.38,4.78,3.21,3.57,6-.58,1.34.22,2.5,1.65,3.94-3.8.17-6.79-1-10-1.36s-4.1.44-3.24,2.52,3.07,3,5.7,3.69c1.88.53,2.08.87.08,2-1.7,1,.44,2.18,2,2.71,2.55.83,5.56.92,8,2.06-1.57,3.48-6.61,3.16-9.5,5.08,1,2.34,3.88,2.84,6.29,3.12,7,.86,7.4,5.45,9.78,8.79.68.94-.86,2.68-3.43,2.81-1.76.09-3.51.28-5.26.49-1.57.2-3.59.59-3.93,1.58-1.15,3.49-4.88,3.06-8.29,3.17a114.73,114.73,0,0,1-14-.35,1.52,1.52,0,0,1-.74-1.9c.29-.75,1-1.68.23-2.29-4.11-3.33-3.64-7.34-3.56-11.32a30.16,30.16,0,0,0-3.16-13c-1.54-3.39-2.75-7.8,1.95-11.14,2-1.43,2.13-3,.68-4.78-1.14-1.35-2.58-2.7-.82-4.35.37-3.26-.47-6.62,1.64-9.71a2.5,2.5,0,0,1,1.79-2.92A11.64,11.64,0,0,1,485.55,22Z" transform="translate(0 -5.05)"/><path class="cls-3" d="M87.42,71.66c10.74,2,21.83,2.81,32.77,3.53,5.84.38,12,1,18.08.46,7.07-.66,14.1.66,21.15,1,4.26.21,8.41-.1,12.61-.1,3.1,0,4-.56,3.61-3.11-.2-1.21-2.24-2.84-.32-4,2.28-1.39,4.84-.38,6.8.49,1.81.8,2.62.52,3.84-.46a17,17,0,0,1,7.88-3.29C193.33,64,191,63,189.3,61.92c-2.32-1.56-6.15-.75-7.27,1.5-.66,1.31-1.08,2-3.13,1.41-2.4-.67-3-2-2-3.45a15.51,15.51,0,0,1,3.4-2.88c1.79-1.4,3.08-.3,4.55.41,1.31.65,2.42,0,3.62-.47,6.1-2.41,7.38-2,9.33,2.42.87,2,2,3.84,5.42,4.36,4.27.63,4.29,3.7,5.64,5.76,2.21.35,2.89-1.06,4.32-1.38,2.34-.53,3.9.28,4.07,2,.47,5.24,1.58,6,8.54,5.68,1.55-.06,3.11-.16,4.67-.24,3.07-2.3,6.62.9,9.78-.46a15.92,15.92,0,0,1,2.93-.2c3.33.18,6.62.58,10,.72,3,.13,5.81-.18,7.5-2.3,2.23-2.77,4.77-2.93,6.7,0,1.45,2.2,3.82,2.2,6.49,2.54,4.92.63,10.38-.68,14.72,2.06,6.58,0,13.16,0,19.75-.08,1.85,0,2.94.52,3.23,1.83-16.5.4-33-.08-49.46-.5-37.19-.94-74.38-1.88-111.62-2a404.31,404.31,0,0,1-56.48-4.08C83.24,73,72.33,72.35,61.76,70.33c2-1.77,4.71-1.33,7.21-1.07,3.43.34,6.77,1,10.26,1A13.2,13.2,0,0,1,87.42,71.66Z" transform="translate(0 -5.05)"/><path class="cls-4" d="M104.34,40.22c-.19.29-.38.82-.56.82-4.33-.08-8.35,2.27-12.73,1.09-2.81-.77-5,1-7.82.42-1.6-.3-1.52,1.23-1.43,2.18.07.78.22,1.74,1.82,1.46,4.78-.86,5.27,1.4,5.4,3.81.1,1.66,1.28,3,1.73,4.59.86,2.93-.87,4.2-5,3.54-2.3-.37-4.33-.68-6.25.56-.71.46-1.23,1-.65,1.63a2.46,2.46,0,0,0,2.24.74c4-.44,4-.42,6.59.6-.82,3.7-5.25,3.9-8.92,4.39-4,.55-5.68-1.13-4.52-4.1.33-.87.55-1.41-.45-2.07-3.4-2.23-6.16-4.9-10.39-6.56-2.7-1-6.06-1.63-7.59-4.24-.69-1.19-3.68-2.06-5.68-.37-1.77,1.5-3.38,1.21-5.14.14-2.16-1.29-2.86-3.08-1.61-4.72s2.31-3,2.27-4.86c-11.91.78-13.2,1.52-14.08,8.38-3.82-2.11-7.48-1.18-11.14,0-3.27-3,.34-4.68,2.71-6.34,3.68-2.59,4.29-3.16,3.82-5.69l14.71-.79c1.35,0,2.68-.12,4-.09l6.81.14c11.14-.58,21.77,1.86,32.59,3C91.55,38.51,98.43,37.51,104.34,40.22Z" transform="translate(0 -5.05)"/><path class="cls-5" d="M400.76,62.49C406,65.8,406,65.8,401,70.27c2,2.66,5.16.68,7.71.9,3.4.29,4.51,2.32,6.31,3.64,2.42-.82,1.56-2.07,1.53-3.08,0-1.59.52-2.51,3.08-2,1.11.24,2.51.23,2.73-.71.27-1.2-.85-2.27-2.38-2.57a17.13,17.13,0,0,0-6.51.49c-3.79.71-3.26-.65-1.71-2.22.65-.63,1.94-.49,2.58-1.11h0a7.07,7.07,0,0,1,2.32-1.29c4-.83,6.8-3.87,11.61-3.18a17.15,17.15,0,0,1,3.68.85c4.5,2.67-1.92,3.33-1.86,5.55a28.79,28.79,0,0,1,13.36,8.21c1.6,1.62,4.27,2.57,5.46,4.44.21,1.14,1,1.53,2.69,1.47,6.2-.24,12.43.1,18.65-.26,2.5,0,5,0,6.79,1.48a1.44,1.44,0,0,1-.1,2.18l-34.63-.18c-14-.06-28-.06-42-.17-2.87,0-5.73-.38-8.58-.58a1.39,1.39,0,0,1,.32-1.84c.81-.53,1.69-1,2.41-1.59s1.25-1.32.5-2.13a2.72,2.72,0,0,0-2.86-.72c-2.42.82-4.19.93-4.87-1.39-.36-1.25-1.62-1.31-3-.8a24.72,24.72,0,0,0-3.43,1.36c-3.5,1.84-9.61.56-10.67-2.33-.73-1.92,1.75-1.72,3.41-1.94a3.86,3.86,0,0,1,2.75.79c3.48-.49,7.07.74,10.54-.55,1.15-.42,2.87-.43,3.25-1.36.9-2.14,3.74-1,5.46-1.74-3.16-2-3.63-3.23-2.44-5.32,1.46-2.58,4.13-.81,6.24-1C400.07,61.66,400.29,62.17,400.76,62.49Z" transform="translate(0 -5.05)"/><path class="cls-6" d="M94.22,23.13c2-.07,4-.54,6.42.55-3.34,1.72-7.35,1.76-10.56,3.12-1.1.46-3.11.28-4.44,1.25a2.67,2.67,0,0,1-3-.12c-2.76-2.53-7.35-1.86-10.71-3.3a3,3,0,0,0-3.53.31A2.39,2.39,0,0,1,66,25.4C58,23,49.21,23.55,40.83,22.54c-5.91-.7-11.67,1.09-17.12,2.84-1,.32-1.85,1-3,.84-4.51-.69-6.31-.2-3.2,3.17.72.77-.92,1.22-2,1.49a1,1,0,0,1-1.21-.23c-1.8-1.43-5-1.61-6.19-3.62.49-.56,1-1.11,1.5-1.67.43-1.52,2.6-2,3.74-3.06l3.65.22c2.63-1.37,5.7-1.43,8.77-1.5,1.43,0,3.13.4,3.42-1.25l14.91.37c7.33-1.5,14.18,1.06,21.34,1.28C75.1,21.7,84.46,24.18,94.22,23.13Z" transform="translate(0 -5.05)"/><path class="cls-4" d="M23.83,49.24c2.57.24,3.54,1.66,4.22,3.47,2.78-.8,3.54-3,6.42-3.34,1.65-.18,2.84-.54,3.93.64.81.87,2.06,1.39.73,2.79-1.67,1.75-2.15,4.37-4.72,5.38-4,1.57-3.33,3.2-1.49,5.36a15.39,15.39,0,0,1,1.52,2.59,4.62,4.62,0,0,1-4.12.62c-3.34-2-7.85-3.67-4.66-7.72l.12-.09c.62-.64.86-1.3.16-2l-2.08-1.1c-3.57-1.9-3.59-1.91-1.05-4.55C23.43,50.66,24.12,50.1,23.83,49.24Z" transform="translate(0 -5.05)"/><path class="cls-7" d="M104.34,40.22C87,38.78,69.75,37,52.55,34.86c-.13-.48-.25-1-.37-1.44,6.9.07,13.57,1.34,20.36,2,16.86,1.67,33.66,3.82,50.79,3.68,1.64.17,3.55-.72,4.88.64.83,0,1.67,0,2.51-.08,1.81,2.65-1.36,2.71-3.23,2.72-7,.06-14,.2-20.66-1.92Z" transform="translate(0 -5.05)"/><path class="cls-8" d="M94.22,23.13c-1.32,1.53-3.61,1.27-5.38,1.13C73.9,23.1,58.93,22.08,44.15,20.14l-.27-1.76c2.25-.46,4.36.17,6.52.42Q72.23,21.4,94.22,23.13Z" transform="translate(0 -5.05)"/><path class="cls-7" d="M27,35.6c0,2.62,2.84,3.15,6,3.76-4.91.53-8.85,1.71-11.54,4.47-1.09,1.15-2.57,2.28-1,3.8-.08.35-.16.7-.25,1-3.4-.93-5.38-2-2.34-4.79,1.33-1.2-.35-3.65,3.41-4.13-2-1.49-4.41.05-6.08-1.06,1.26-1.25,2.81-1.31,4.65-.87a10.26,10.26,0,0,0,4.57-.25c-.14-1-2.38-.73-2.11-1.29C23.22,34.42,25.13,34.8,27,35.6Z" transform="translate(0 -5.05)"/><path class="cls-3" d="M327.4,81.49c4.18-2.9,9.6-2,14.36-1.86,6.79.12,13.59.24,20.36.45,2.05.06,4.1-.21,4.53,1.8a61,61,0,0,1-10.64.19Q341.72,81.76,327.4,81.49Z" transform="translate(0 -5.05)"/><path class="cls-6" d="M26.92,10.72c-.09,2-2.36,1.72-4.17,2.11-3.07.68-7.09.13-8.6,3.07-3.22-.19-4.71-2.55-8-2.94C13,11,19.64,9.58,26.74,10.09c.53.07.72.18.61.35A.63.63,0,0,1,26.92,10.72Z" transform="translate(0 -5.05)"/><path class="cls-3" d="M30.66,66.5l3.78-.37a77,77,0,0,0,14.24,1,30.64,30.64,0,0,1,9.57,1.33c1.86.61.32,1.13-.44,1.58-9-.83-18.22-.72-27.17-2.15C29.88,67.44,29.91,67,30.66,66.5Z" transform="translate(0 -5.05)"/><path class="cls-9" d="M29.24,19.77c.55.51,1.11,1,2.31,2.07-5.11.53-9.73,1.08-14.5.68.14-.63.34-1.25-.92-1.43C14.64,20.9,13,21.4,10.85,20,17.46,19.33,23.29,18.69,29.24,19.77Z" transform="translate(0 -5.05)"/><path class="cls-10" d="M26.92,10.72a.75.75,0,0,1-.18-.63c0-.44,0-.87-.07-1.3,8.7.2,17.48,0,25.81,2.31.56.44.54.87,0,1.28a4.1,4.1,0,0,1-3.85-.06A108,108,0,0,0,26.92,10.72Z" transform="translate(0 -5.05)"/><path class="cls-2" d="M30.66,66.5c0,.48,0,.94,0,1.41-1.56.21-3.34.38-3.75-1A3.23,3.23,0,0,0,25.4,65c-4.3-3-4.25-3,.26-6-.06,2.23.22,4.28,3.55,5.48C30,64.78,30.19,65.82,30.66,66.5Z" transform="translate(0 -5.05)"/><path class="cls-3" d="M392,80.33c-.11.61-.21,1.22-.33,1.83A148.16,148.16,0,0,1,370.4,82c1-1.89,3.39-1.52,5.42-1.74a2.43,2.43,0,0,1,2.71-.13C383,81,387.51,80.62,392,80.33Z" transform="translate(0 -5.05)"/><path class="cls-9" d="M8.16,27c2.29,1,6.2.59,6.19,3.62-3.75-.25-7.16-1.67-11-1.56a.79.79,0,0,1-.2-1.1Z" transform="translate(0 -5.05)"/><path class="cls-3" d="M314.05,81.15c.08-.63,0-1.36.86-1.7,2.78-1.1,7.6-.15,10,1.91A44.73,44.73,0,0,1,314.05,81.15Z" transform="translate(0 -5.05)"/><path class="cls-9" d="M13.4,22.3c1,2.44-1,3-3.74,3.06C8.32,22.14,8.32,22.14,13.4,22.3Z" transform="translate(0 -5.05)"/><path class="cls-6" d="M3.14,28c.07.37.14.74.2,1.1a3.53,3.53,0,0,1-.58.16c-1.35.21-3,.07-2.72-1S2,27.46,3.14,28Z" transform="translate(0 -5.05)"/><path class="cls-7" d="M45.74,34.72a4,4,0,0,1-4,.09A3,3,0,0,1,45.74,34.72Z" transform="translate(0 -5.05)"/><path class="cls-2" d="M25.94,57c.82.11,1.75.23,1.66,1s-1.06.82-1.82,1C25.84,58.27,25.88,57.6,25.94,57Z" transform="translate(0 -5.05)"/><path class="cls-2" d="M476.91,83.1l-.18-1.82a2.56,2.56,0,0,1,2.67-.15c.06.62.13,1.24.2,1.86A4.4,4.4,0,0,1,476.91,83.1Z" transform="translate(0 -5.05)"/><path class="cls-11" d="M479.4,81.13c-.9,0-1.79.1-2.67.15a15.6,15.6,0,0,0-6.78-.62c-3.5-4.62-8.89-.93-13.31-1.51-1.85-.82-3.57-2.32-6-.71a3.31,3.31,0,0,1-2.52-.31,14.32,14.32,0,0,1-5.74-3.56c3.82-1.14,6.17-2.8,7.27-6s-.7-5.27-3.66-5.48c-5.08-.35-9.59-2-14.54-2.34a3.44,3.44,0,0,1-2.8-.78c-.41-.57,0,.2-.35-.4-1.15-2.29-3.32-4.86-6.39-4.49-2.58.31-3.85,3.06-3,5.55.39,1.12-.94,2-2,2.86l-2.65.18c.18-2.37-1.44-4.27-3-6.2-2.13-2.57-3.33-2.75-6.57-.86-1,.6-1.92,1.34-3,1.89-.64.33-1.56.83-2.31.17s-.85-1.85,0-2.16a14.09,14.09,0,0,0,6.69-5.05c.67-.92,2.21-1,3.57-.68a13.8,13.8,0,0,0,4.58.35c.09-2.07,1.73-2,4-1.67,3.17.52,6.41.77,9.16-1h0c-.28-1.4,0-2.88-1-4.11a4.64,4.64,0,0,0-4.23,1.13c-.78.57-1.37,1.45-2.58,1.33-5.13-.53-9,2.15-13.61,2.74-3.86.51-7.36,2.26-11.66,1.1-2.18-.59-4.18.84-6.24,1.38s-3.25,1.54-2.17,3.34c.37.63-.52,1.19-1.51,1.25-3.55.26-7.18,1.37-10.37,1.17a17.53,17.53,0,0,1-7.63-2.49c-.85-.55-1.49-1.22-.87-2.1a4.4,4.4,0,0,1,2.66-1.31c2.21-.55,5.11,1.78,6.63-.48.89-1.34.4-3.13.61-4.71a15.14,15.14,0,0,1,.53-2.36c.61-2,3-2.41,5.1-2.28s1.32,1.76,1.54,2.8c.36,1.51-.69,2.81-1.37,4.15-.53,1-.34,1.92,1.11,2.44s2.47-.24,3.36-1c.29-.25.49-.54.76-.79,1.17-1.09-.41-3.55,2.3-3.51,2.9,0,6.37-.34,8.7,1.66a2.25,2.25,0,0,0,2.54.55c.65-2-1-2.69-3.44-3.08-1.32-.2-2-.89-1.56-1.74s1.74-.64,2.83-.46a11.9,11.9,0,0,1,4.88,1.42,6.64,6.64,0,0,0,4.2,1.23c1.8-.11,3.92-.09,4.45-1.58.65-1.78-2.13-1.13-3.06-1.82-3.39-2.52-8.5-2.52-13.26-4.62,4.2-1.3,6.84-4.11,11.6-2.1A2.38,2.38,0,0,0,409,35c1-.73.16-2.91,2.28-2.4,4.33,1,9-1.91,13,.79.68.45,1.32.81,1.52,1.44.38,1.21.15,2.73,2.65,2.87s5.26-.33,6.39-2c1.76-2.61,3.38-3.25,6-.71,1,1,2.18,1.23,3.22.22a1.46,1.46,0,0,0-.49-2.56c-2.12-.85-4.35-1.48-5.48-3.18,4.8-1.7,4.88-1.73,7.63,1.48a4.37,4.37,0,0,0,3.67,1.7c1.91,0,2.71-.76,2.92-2.1.32-2.18,2.51-2.45,4.08-1.11,2.46,2.13,6.37,2.88,8.55,5.1,1.17,1.2,2.66,1.13,4.12.72a20.1,20.1,0,0,1,5.1-1.05,4.71,4.71,0,0,0,1.9,3.43c2.87,2.41,2.9,5.25-.48,6.74-2.83,1.23-3.06,2.38-1.9,4.21.28.43.84,1.1.62,1.31-3.39,3.18.39,5.6,1.79,8.16,2.1,3.81,1.19,7.78,1.09,11.59-.09,3.41.44,6.08,3.9,8.51C483.75,80,483.51,80.17,479.4,81.13Z" transform="translate(0 -5.05)"/><path class="cls-5" d="M239.9,77.5a3.18,3.18,0,0,1-3.94.56,9.55,9.55,0,0,0-5.51-1,8.64,8.64,0,0,1,1.76-4.57c2.62-.15,5.52,2.64,7.27.63s-2.58-2.72-4-4.13c-.64-.62-1.69-1-1.6-2,1-1.38,3,.44,4.1-.73-3.18-4.3-3.18-4.3-6.23-1.12-3.13-2.48-2.31-5.62-2.91-8.37-.23-1,1.81-1.63,3.46-1.65,1.17.68.48,1.46.31,2.22a1.4,1.4,0,0,0,.81,1.68c1.3.7,8.22.45,9.36-.32,2.78-1.85,3.7-5.38.92-7.22-4.07-2.7-8.05-6-14.49-5.64-2.6.15-2.23-1.15-2.48-2.15-.52-2-1.95-2.39-4.19-1.25-1.26.63-2.44,1.77-4,.7s-3.17-2.25-3.88-3.79c-.31-.67.41-1.39,1.2-1.56,3-.65,4.54-3.17,8.8-2.62,2.71.34,6-1.32,8.94-2.24a6.51,6.51,0,0,1,6.54,1.09c.8.7,1.07,2,2.85,1.19,1.34-.59,1.32-1.54.63-2.52-.3-.42-.46-.92.64-1.43,2.11,2.06,5.45,3.07,8.12,4.72,2.36-1.1,1.27-2.81,2.14-4.05,1.13-1.6,2.82-1.95,4.93-1.77s2.12,1.39,2.35,2.51c.61,3.06.43,3.24-4.41,4.08a2.78,2.78,0,0,0,1.79,2.44c2,1,2.33,2.15,1.57,3.74a4.65,4.65,0,0,0-.14,2.35A1.69,1.69,0,0,0,262.47,47a1.67,1.67,0,0,0,2-1.56c.15-1.21-.6-2.51.82-3.94,3.08,1,5.87,3.06,9.67,1.34,1.11-.51,2.57.17,2.24,1.54s-.05,2.77-1,3.71c-2.34,2.39-.28,4.15.94,6.14,1.92,3.12,5.85,5.19,7.9,8.27.89,1.34,1.27,1.9-.24,3.2-2.54,2.19-2,3.19,1.52,3.43,3,.19,5.09.44,6,3,.68,1.84,3.37.61,5.46.37.45,3.07-1.73,3.86-5,3.89-2.79,0-4.93.52-4.26,3-5.95-.28-11.87-.62-17.82-.81-2.88-.09-5.67.06-4.67-3,.28-.87-.33-1.59-1.53-1.85-1.53-.32-1.9.48-2,1.32-.37,2.74-3.23,3.23-6.2,3.37a58,58,0,0,1-13.75-1.09C241.58,76.76,240.64,76.32,239.9,77.5Z" transform="translate(0 -5.05)"/><path class="cls-4" d="M106.83,40.47c6.79.19,13.58.41,20.36.53,1.38,0,3.28.36,3.53-1.33-.08-2.06-.16-4.14,1.41-6.07,3.94-.14,6.15,2.06,8.87,3.68,1.56.92,2.39,2,1.6,3.33-.89,1.48-3,1-4.68,1.23-1.87.31-2.86-1.58-4.81-.93.12,4.6.65,5,5.95,3.79A74.9,74.9,0,0,1,150.74,43c2.68-.16,6.24-.35,4.77-3.62-.24-.52.16-1,.86-1.05,1.4-.11,3.38.37,3.35,1.09-.18,3.76,2.58,7,3.18,10.58.09.63-.11,1.67-.94,1.57-5-.54-4.48,2.17-5.3,4.24-.34.86-1.34,1.6-1.89,2.45s-.6,2-2.55,1.61c-1.55-.32-3.42-.84-3-2.14.54-1.7-1-3.8,1.65-5.13.58-.29,1.16-.59.72-1.13s-1.45-.6-2.34-.51c-1.24.13-1.5,1-2.2,1.51-1.42,1.11-2.71,3.23-5.7,1.44a2.2,2.2,0,0,0-1.2-.06c-1.71,3.7-4.11.92-6.22.34-1.25-.35-2.52-.73-1.78-2a2.79,2.79,0,0,1,3.34-1.71c1.85.25,3.82.42,5.41-.9-1.68-1.42-3.55-.82-5.16-.72-2.59.15-4.83.19-5.84-2-.34-.71-2-1.58-2.56-.9-2,2.63-4-1.7-5.8.15-3.58-3.05-9.28-2.22-13.61-3.85C107,41.8,107,41.09,106.83,40.47Z" transform="translate(0 -5.05)"/><path class="cls-12" d="M391.84,18.69a80.06,80.06,0,0,0-9.93-.29c-8.85.12-17.72.15-26.56-.13-6.64-.21-13.31.53-19.9-.33-.4-.12-.56-.29-.47-.47s.18-.29.29-.3c10-.7,19.94-.23,29.91-.18,6.44,0,12.9.16,19.28,0,17.15-.55,34.25,0,51.35.19,5.95.07,12,0,17.86,1.05.74.77.9,1.47-.38,2-6.62-.17-13.37.87-19.74-1.26a17.14,17.14,0,0,0-5.4-.22,4.22,4.22,0,0,1-4,.05c-3.8.15-7.77-1.3-11.32.73a.87.87,0,0,1-.94,1.33C405.41,19,398.25,20.65,391.84,18.69Z" transform="translate(0 -5.05)"/><path class="cls-11" d="M391.84,18.69c7.06-.46,14.07-.77,20.94.84.55.87,1.23,1.85.54,2.74-.9,1.14-2.32,2.4-3.9.5s-3.05-2-5.42-1c-1.38.58-2.29,1-.77,2.07.7.48,1.33,1.24.63,1.65-3.23,1.92-3.49,4.18-3,7,.26,1.43-2.74,1.43-4.3.83A15.27,15.27,0,0,1,390.27,29a12.72,12.72,0,0,0,9.79-3.93C397.85,22.66,392.73,22,391.84,18.69Z" transform="translate(0 -5.05)"/><path class="cls-5" d="M362.53,72.45c-3.55,0-7.13,1.78-10.7-.29-1-.56-2.65-.6-2.18-1.86.42-1.07,1.67-.64,2.74-.57a39.39,39.39,0,0,0,4.61,0c1.44-.07,2.54-.55,2.54-1.75s-.62-1.84-2.23-2c-1.78-.13-3.93-.12-4.15-1.72a7.1,7.1,0,0,1,1.06-3.67c.48-1,1.8-1.31,3.21-1.39,1.61-.09,2.62.49,2.89,1.52.56,2.28,7.06,1.67,4.86,5.28-.66,1.08-1.22,2,.1,3.46C367.82,72.27,367.42,72.5,362.53,72.45Z" transform="translate(0 -5.05)"/><path class="cls-9" d="M52.6,12a4.83,4.83,0,0,0-.12-.92c7.46.74,14.94,1.43,22.39,2.22A279.72,279.72,0,0,0,104,15c2.11,0,4.45-.31,6.35,1.29-6.22,1.5-12.08-.16-18-.2C79,16,66,13.51,52.72,12.94c-.38-.18-.53-.37-.44-.58S52.48,12,52.6,12Z" transform="translate(0 -5.05)"/><path class="cls-13" d="M245.26,17.32c9.67-1.84,42.09-1.22,47.32.68C276.13,18.49,260.69,17.8,245.26,17.32Z" transform="translate(0 -5.05)"/><path class="cls-11" d="M477.26,21.47a3.52,3.52,0,0,1-1.44,3c-1.33-.12-2.69-1.37-4,.33-.6.81-5.33.85-6.22.21a8.81,8.81,0,0,0-5.29-1.69c-2.82,0-3.7-1.44-3.76-3.23C463.65,19.25,470.75,18.09,477.26,21.47Z" transform="translate(0 -5.05)"/><path class="cls-11" d="M433.55,19c6.81-.11,13.62-.38,20.37.52a4.73,4.73,0,0,1,1.73.6,4.53,4.53,0,0,0-2.94,2.45,1.87,1.87,0,0,1-2.6.76c-3.11-1.56-6.48-.91-9.7-.61C436.2,23.06,434.11,21.83,433.55,19Z" transform="translate(0 -5.05)"/><path class="cls-13" d="M335.27,17.17c.07.26.13.51.18.77-11.36.91-36.73.43-40.62-.76.4-.74,1.35-.74,2.15-.68,6.88.51,13.77-.22,20.63-.08,4.22.1,8.42.22,12.63,0C332,16.35,333.84,16.1,335.27,17.17Z" transform="translate(0 -5.05)"/><path class="cls-10" d="M455.65,20.08l-1.73-.6c-.09-.43-.18-.87-.25-1.3A203.61,203.61,0,0,1,483.94,20c1.8.26,3.16.52,1.62,2.05-2.86.5-5.57-.09-8.3-.56-2.4-1.52-5.4-1.23-8.14-1.11a111.31,111.31,0,0,1-12.53-.26Z" transform="translate(0 -5.05)"/><path class="cls-11" d="M366.86,59.61a12.64,12.64,0,0,1,4.59.36c1.11.32,2.87-.76,3.4.62a4.17,4.17,0,0,1,0,2.81,2.21,2.21,0,0,1-3,1.18c-2.31-.85-5.08-1.53-4.84-4-.32-.2-.44-.4-.37-.62S366.76,59.62,366.86,59.61Z" transform="translate(0 -5.05)"/><path class="cls-4" d="M63.93,66.28c-2-1.64-1.52-3.28-1.77-4.75-.13-.91-.44-2,1.06-2.53a2.28,2.28,0,0,1,2.36.34c1,.86,2.06,1.74,1.17,3S65,64.71,63.93,66.28Z" transform="translate(0 -5.05)"/><path class="cls-14" d="M141.84,16.08c5.07-.64,10.14-1.44,15.23-.39C152,17.56,146.93,16.57,141.84,16.08Z" transform="translate(0 -5.05)"/><path class="cls-4" d="M87.42,71.66a16.28,16.28,0,0,1-8.19-1.37c.16-2.39,2.63-2.2,4.78-2.07C86.83,68.4,87.3,70,87.42,71.66Z" transform="translate(0 -5.05)"/><path class="cls-11" d="M406.15,29c1.5-1.16,4-.25,5.34-1.66.85-.91,1.9-.39,2.72.18.64.43,1.3.89.94,1.61s-1.28.76-2.15.84C410.58,30.18,408.21,30.31,406.15,29Z" transform="translate(0 -5.05)"/><path class="cls-11" d="M373,41.92c-.52,1-1.11,1.95-.31,3.12,1,1.46-.9,1.82-2.16,2.35a1.63,1.63,0,0,1-1.74-.22,1.6,1.6,0,0,1-.08-2.59c1.23-1,2-2.5,4.28-2.68Z" transform="translate(0 -5.05)"/><path class="cls-15" d="M170.34,15.82c-4.17,2-7,.82-9.84.09C163.35,15.42,166.18,14.78,170.34,15.82Z" transform="translate(0 -5.05)"/><path class="cls-4" d="M125.56,51.33c1.21-.07,2.21.21,2.47,1.12.18.7-.4,1.36-1.38,1.26-1.2-.13-2.79-.25-3-1.43C123.58,51.46,124.72,51.44,125.56,51.33Z" transform="translate(0 -5.05)"/><path class="cls-11" d="M424.1,18.79l4-.05c-.07,1,.49,2.35-1.57,2.53C424,21.49,424.42,19.9,424.1,18.79Z" transform="translate(0 -5.05)"/><path class="cls-11" d="M372.94,41.9c.11-1-.8-2.16.4-3.16,1.71.2,3.12.83,2.87,2.11s-2,.87-3.26,1.07Z" transform="translate(0 -5.05)"/><path class="cls-11" d="M376.22,71.58a3.22,3.22,0,0,1-2.75-.79c.12-.85-.61-2.41,1-2.31C376.79,68.63,375.77,70.47,376.22,71.58Z" transform="translate(0 -5.05)"/><path class="cls-6" d="M52.6,12a9.25,9.25,0,0,0,.12.92c-1.93,1.68-3.29,1.41-4.13-.62C49.93,12.23,51.26,12.12,52.6,12Z" transform="translate(0 -5.05)"/><path class="cls-4" d="M167,43.27a1.7,1.7,0,0,1-2,.65c-.64-.15-1-.63-.66-1a2.6,2.6,0,0,1,1.55-.48C166.47,42.41,167.06,42.67,167,43.27Z" transform="translate(0 -5.05)"/><path class="cls-4" d="M128.21,39.75c-1.69,0-3.4.15-4.88-.64C125.12,38.7,127.36,36.53,128.21,39.75Z" transform="translate(0 -5.05)"/><path class="cls-4" d="M150.24,37c-.13.28-.17.69-.43.79s-.73-.16-1.12-.24c.14-.28.17-.7.44-.79S149.87,37,150.24,37Z" transform="translate(0 -5.05)"/><path class="cls-4" d="M44.45,51.79c-.14.28-.17.69-.42.78s-.74-.14-1.13-.24c.14-.27.17-.69.42-.77S44.06,51.69,44.45,51.79Z" transform="translate(0 -5.05)"/><path class="cls-11" d="M387.79,33.72c.38.09,1,.11,1.1.31s-.13.68-.38.76a1.37,1.37,0,0,1-1.06-.27C387.33,34.34,387.64,34,387.79,33.72Z" transform="translate(0 -5.05)"/><path class="cls-5" d="M378.53,80.14l-2.71.13c.06-.58.07-1.34.93-1.5C378.19,78.53,378.27,79.46,378.53,80.14Z" transform="translate(0 -5.05)"/><path class="cls-11" d="M418.21,20.12l1,.35a2.88,2.88,0,0,1-.95.43,3,3,0,0,1-1-.32Z" transform="translate(0 -5.05)"/><path class="cls-4" d="M135.77,29.37l-1-.37a3,3,0,0,1,1-.39,2.81,2.81,0,0,1,1,.34Z" transform="translate(0 -5.05)"/><path class="cls-11" d="M414.32,63.65a3,3,0,0,1-2.58,1.11A3,3,0,0,1,414.32,63.65Z" transform="translate(0 -5.05)"/><path class="cls-11" d="M400.76,62.49l-1.49-.86C401.18,60.65,400.38,62.1,400.76,62.49Z" transform="translate(0 -5.05)"/><path class="cls-5" d="M366.86,59.61l.09,1C366,60.3,366,60,366.86,59.61Z" transform="translate(0 -5.05)"/><path class="cls-2" d="M239.9,77.5c-1.42-.61-1.67-1.66-.31-2.09,2.33-.75,2.58.78,2.95,1.92Z" transform="translate(0 -5.05)"/><path class="cls-2" d="M191.69,76c-.38-.09-1-.12-1.08-.3s.19-.52.33-.8c.38.09,1,.12,1.08.29S191.83,75.75,191.69,76Z" transform="translate(0 -5.05)"/><path class="cls-2" d="M431.45,60.73c.19-1,.31-1.94,2.38-1.23,4.95,1.67,10,3,15.52,1.56,1.18,1.25.16,2.59,1.81,3.94,3.33,2.72,2.84,3-1.71,5.18.28,1.72,3.57.25,3.95,2.16a28.85,28.85,0,0,1-11,2.23c-3.87-3-6.59-7.06-13.54-7.39-2.2-.1-2-1.72-1.18-3.05s2.41-1.19,3.77-1.64S432.56,61.33,431.45,60.73Z" transform="translate(0 -5.05)"/><path class="cls-2" d="M417,63.47c-.11-1.74,2.23-3.7-1-5.16-.24-.11-.29-.81-.25-.82,3.61-.83,3.82-3.57,5.84-5.27.42-.35,1.58-.27,1.66.18.42,2.3,3.19,2.63,5.28,3.67s.81,2.56.13,3.88c-2.44,0-4.65.3-6.54,1.67A9.94,9.94,0,0,1,417,63.47Z" transform="translate(0 -5.05)"/><path class="cls-2" d="M448.12,78.13l2.73-.19c2.07-.89,3.77-.24,5.41.65a15.4,15.4,0,0,0,4.44-.66c5.82-2.43,7.3-2,9.25,2.73l-22.89.26Z" transform="translate(0 -5.05)"/><path class="cls-2" d="M418.2,77.12c2.12.85,2.6-.17,3.18-1.32s2-1.15,3.31-1a1.68,1.68,0,0,1,1.64,1.81c.06,1.19-1,1.76-2.45,1.79-2.41.06-4,1.15-5.87,2a4,4,0,0,1-3.7,0,1,1,0,0,1-.08-1.26c1.1-.77.74-2.72,3.4-2.27A2.52,2.52,0,0,1,418.2,77.12Z" transform="translate(0 -5.05)"/><path class="cls-2" d="M442.29,79.33c-.16.93-1.08,1-2,1.06-1.62.06-3.24-.1-3.55-1.53-.18-.85.89-1.08,1.77-1C440,78,441.66,78.14,442.29,79.33Z" transform="translate(0 -5.05)"/><path class="cls-2" d="M406.61,78.62c1.08,0,2.18.1,2.45,1.06s-.46,1.52-1.76,1.52-2.62-.42-2.64-1.58C404.65,78.84,405.66,78.73,406.61,78.62Z" transform="translate(0 -5.05)"/><path class="cls-2" d="M434.91,76c-2.35-1.07-3.13-2-2.65-3.54C434.48,73.17,435.51,74,434.91,76Z" transform="translate(0 -5.05)"/><path class="cls-2" d="M399.15,73.74c-.13.47-.42.94-1.17.67-1.12-.41-2.3-.9-2.29-2,0-.5.61-.81,1.29-.67C398.3,72,399.1,72.69,399.15,73.74Z" transform="translate(0 -5.05)"/><path class="cls-2" d="M426.8,72.3c-.14.28-.27.55-.4.83-.37-.1-1-.12-1.08-.3s.2-.54.33-.8Z" transform="translate(0 -5.05)"/><path class="cls-2" d="M453.43,43.56a4.62,4.62,0,0,1-.93-.58c-2.8-2.85-4.06-2.87-6.34-.14-2.09,2.54-3.63,2.95-6.88,1.91a2.73,2.73,0,0,1-2-1.71c-.29-1.06,1-1.31,1.95-1.63a15.86,15.86,0,0,1,3.18-.58c3.63-.49,6-1.73,6.21-4.65.11-1.37,5.71-3.11,7.19-2.4s2,4.09.34,5.29A5.65,5.65,0,0,0,453.43,43.56Z" transform="translate(0 -5.05)"/><path class="cls-5" d="M456.26,78.59a12,12,0,0,1-5.41-.65c.06-1,.37-2,2.17-1.89C455.17,76.14,456,77.22,456.26,78.59Z" transform="translate(0 -5.05)"/><path class="cls-2" d="M416.42,51.62c-.16.36-.19.77-.41.83a1.06,1.06,0,0,1-1.37-.5c-.07-.19-1.18-.83.22-.79A6.2,6.2,0,0,1,416.42,51.62Z" transform="translate(0 -5.05)"/><path class="cls-2" d="M430.48,40.31l-.49-.25a1.41,1.41,0,0,1,.51-.22c.17,0,.32.14.49.23Z" transform="translate(0 -5.05)"/><path class="cls-2" d="M427.41,48.43c.19.06.55.14.54.19-.05.33-.29.27-.55-.18Z" transform="translate(0 -5.05)"/><g class="cls-16"><path class="cls-15" d="M494,69.14c-4.37,1.3-9,1.33-13.61,1.28-10.31-.08-20.62-.36-30.88.75-3.22.35-6.53.16-9.78.2a8.74,8.74,0,0,1-4.16.24l-7.22.49c-4.1,2-8.68.47-13,.83-11.45,1-23-.3-34.47.51-16.42-.29-32.83-.65-49.23-1.21-18.41-.63-36.76-2-55.19-2.11-6.39,0-12.71-1.11-19.19-.53-1.79.15-3.74-.58-5.6-1-4.48-1.08-9.21-2.37-14.08-.75-.07,0-.16.11-.18.1-5.39-2.15-8.82-2.35-15.8-2.68-11.28-.53-22.63-.15-33.83-1.39-5.43-.62-11.13.28-16.35-1.51-.73-1.26,0-2.22,1.22-3.1a8.68,8.68,0,0,1,1.79-.56,18.16,18.16,0,0,1,1.95-.21c3-.06,5.94-.09,8.89,0a17.7,17.7,0,0,1,1.94.17c1.55.25,3,.65,4.55,1s2.8.81,4.41.48c.34-1.1-2.58-1.86-.64-3.11,17.53.72,35,2,52.49,3,17.7,1,35.44,1.69,53.18,2.52,1.32.06,2.64.27,3.94.41a5.42,5.42,0,0,0,4.2,0,35.65,35.65,0,0,1,9.24.67,5.71,5.71,0,0,0,5.47.18,39.11,39.11,0,0,1,9.18.36,11.93,11.93,0,0,0,2.8.27l4,0c1.34,0,2.68,0,4,.08,7.62,0,15.34-.94,22.79,1.08,2.31.6,4.5-.14,6.73-.32a12.54,12.54,0,0,1,5.32.29,10.12,10.12,0,0,0,6.81-.51l2.4,0c2.87,1.24,6.08.87,9.15.87,9.12,0,18.21-.31,27.29-1l1.31.25a4.17,4.17,0,0,0,3.78,1.81c2.75,0,5.38-.78,8.13-.45,3.61.58,7.1-.7,10.69-.45a27,27,0,0,0,6-.64,55,55,0,0,1,8.71-.31,8.86,8.86,0,0,1,4.1,1.2c4.45,1.93,9.34,1.32,14.13,1.3,4.22,0,8.42-.07,12.63-.12A1.1,1.1,0,0,1,494,69.14Z" transform="translate(0 -5.05)"/><path class="cls-15" d="M259.59,45.37c16.71.06,33.39,1.21,50.09,1.48,26.06.41,52.12,1.7,78.23,1,8.68-.25,17.38-.7,26-.55,5.19.09,10.55.25,15.51,1.87,1.29.43,1.63.92,1.41,1.8-2.59,2.88-6.81,2.07-10.52,2.41-11.31.87-22.61,2.27-32.51,1.74,15.78.05,33.06,1.18,50.41,1.62a7.07,7.07,0,0,1,2.08.61c.86.7,1,1.41.07,2.13-16,.33-32,.76-48,.91-3.95,0-7.93-.69-11.95-.33-2.82.31-5.63.8-8.39-.22a53.79,53.79,0,0,0-10.54-.12c-2.29-.77-5.21-1.15-4.5-3.76,2.78-1.88,6.37.46,9.5-1-3.58-.67-7,0-10.4-.16-5-.14-9.9-.56-14.85-.9-1.34-.21-2.61-.59-4-.74a12.63,12.63,0,0,0-1.38,0,1.79,1.79,0,0,0-1,.56,7.1,7.1,0,0,0-.4,1,3.6,3.6,0,0,1-.48,1,4,4,0,0,1-1.05.85c-1.39.64-2.61,1.53-4.4,1.59a2.19,2.19,0,0,1-1.34-.74c-1.23-1.35,2.36-3.76-1.9-4.42a28,28,0,0,0-3.31-.6,10.38,10.38,0,0,0-5.57,1.32c-1.6.77-1.78,2.24-3,3.18-2.71,1.15-5.06,1.34-6.43-1.2,1.57-2.42,1.57-2.42-5-3.3-8.83-.46-17.64-1-26.46-1.23a36.2,36.2,0,0,0-5.22-.7,42.92,42.92,0,0,1-7.27-.51,7.83,7.83,0,0,1-3.33-1.77,2.85,2.85,0,0,1-.83-1.36A1.66,1.66,0,0,1,259.59,45.37Z" transform="translate(0 -5.05)"/><path class="cls-9" d="M431.11,87.15c-.47,0-1,.08-1.42.12-2.17,1.77-5,1.69-7.85,1.37q-5.91.21-11.86.2a14.59,14.59,0,0,1-5.68-1.16l-2.58,0c-6.79,2.08-13.91,1.43-20.87.94-6.17-.42-12.3-.75-18.48-.77-10-.48-20-.94-30.1-1a7.13,7.13,0,0,1-4.22-1.32c-6.33-.91-12.78-.88-19.17-1.15-22-.9-43.91-1.92-65.8-3.45-15.07-1-30.22-1.39-45.28-2.45-9.72-.69-19.59,0-29.15-1.84-.71-.52-.73-1,0-1.54,5.54,0,11.09-.32,16.54.65a5.8,5.8,0,0,1,5,.19c17.31.86,34.63,1.22,51.93,2.57,24.12,1.89,48.34,3.14,72.57,4,39.62,1.5,79.28,2.85,119,1.85,17.3-.43,34.62.3,51.91-.65,4.32-.23,8.74.54,13.1,1.06-7.34.72-14.72,0-22,.8-5.86,2.58-12.68.58-18.79,2l-2.7,0c-5.89-1.3-11.62,1.51-17.6.29C435.56,87.44,433.18,87.89,431.11,87.15Z" transform="translate(0 -5.05)"/><path class="cls-17" d="M172.67,60c-.42.78-.81,1.58-1.22,2.36-8.66.65-17.29-.28-25.94-.43-10.65-.17-21.29-.93-32,0a31.46,31.46,0,0,1-8.48-.92c-5.81-1.14-11.53.58-17.32.06a287.83,287.83,0,0,0-34.26-1.29c-2,.06-4,0-6,.15-10.7.79-21.29.77-31.49-2.14-.77-.67-.7-1.32,0-2a9.09,9.09,0,0,1,4,0,81.43,81.43,0,0,1,16.76-1c-1.61-.56-5.15,0-3.38-2.85H50.85c1.78,0,3.56,0,5.34,0l20,.75c4.75-1,7.75,2,11.75,2.72,8.4.7,16.86.65,25.25.78,17.58.26,35.1,1.67,52.71,1.21a15.37,15.37,0,0,1,2.25.28C169.94,58.18,171.86,58.51,172.67,60Z" transform="translate(0 -5.05)"/><path class="cls-18" d="M235.74,6.05q48.43,1.22,96.89,2.44c15.61.38,31.21.63,46.82,1,13.81.36,27.61.88,41.42,1.26a26.58,26.58,0,0,1,8.21,1.75c-11.7-.9-22.1-.73-32.5-.8-10.22-.06-20.44-.16-30.66-.38-27.15-.62-54.31-1.23-81.45-2-16.69-.47-33.36-1.24-50.05-1.87A1.86,1.86,0,0,1,235.74,6.05Z" transform="translate(0 -5.05)"/><path class="cls-10" d="M136.59,22.15c-.65,0-1.28,0-1.93.05a2.89,2.89,0,0,1-1.7-.15c-2.93-2.39-6.71-.32-10-1a3.88,3.88,0,0,1-1.49-.75c-3.33,0-6.66,0-10-.09A55.12,55.12,0,0,1,101.35,19c-2.92-.6-6.91.23-10.43.17a7.87,7.87,0,0,1-3.7-.95c-1.59-1-2.6-1.43-4,.18-.73.85-2.33.76-3.69.79-13.74.31-27.45,1.41-41.22,1-1.73-.05-3.61.33-4.92-.91,1.63-3.53,6.06-2.33,9.39-2.76,9.27-1.21,18.67-1.17,28.06-1,.53-.27,1.14-.83,1.58-.77,10.17,1.38,20.44.15,30.62.7,4.63.26,9.16,0,13.75,0,9.15,0,17.86,1.94,26.69,3.34a1.17,1.17,0,0,1-.33,1.78C141.21,21.6,138.38,20.76,136.59,22.15Z" transform="translate(0 -5.05)"/><path class="cls-8" d="M134,44.41c0,1.24-.53,2.53.47,3.86,1.64-1,3-2.28,5.55-2,1.67.16,3.14.31,3.08,1.86-.06,1.12-.88,1.74-2.46,1.84-.22,0-.45,0-.66,0-3.72.57-6.67-1-10-1.62-2.91-.54-6.32,1.64-9.47-.23l0,0c-.28,1.65-1.84,2-3.82,1.94-5.55-.21-11.14.25-16.66-.36-10-1.28-20.13-1.28-30.21-1.47-4.34-.08-7.11-.81-8.41-3.82A1.27,1.27,0,0,1,61.61,43a7.19,7.19,0,0,1,2.8-.8c1.67-.16,3.37-.13,5.06-.19a18.59,18.59,0,0,0,5-.81c6.77-1.4,13.53-2,20.22.18,4.19,3.06,9.65,1.74,14.61,2.18A13,13,0,0,1,112,44.83a11.44,11.44,0,0,1,2.18,1c-.07-.72-1.43-.92-1.39-1.72a2.25,2.25,0,0,1,.59-2,6.07,6.07,0,0,1,6.13-.75c1.6,1.83,6.2.12,6.92,3-.22.91-1.07,1.24-2.24,1.29a3.33,3.33,0,0,0,1.85-.18c.91-.35,3.66.73,2.37-1.46C130.43,42.91,132.4,42.18,134,44.41Z" transform="translate(0 -5.05)"/><path class="cls-7" d="M134,22.22l.64,0c-1.85,1.8-4.5.94-6.77.95-22,.07-44,0-66.1.92H95.56c-.68.92-.9,1.4-1,1.39-14-.83-28,.09-42-.44-6.21-.23-11.58,1.85-17.6,2.13a36.3,36.3,0,0,1-10.91-1c-2.49-.64-4.92-1.5-7.67-1.49l-.73-.8c3.84-.71,7-3.52,11.26-2.57,5.16,1.16,10.13.1,15.18.05,13.57-.13,27.15-.3,40.72-.1,10.43.14,20.89-.51,31.31.65,2.49.28,5.37,0,7.4-1.59a1.53,1.53,0,0,0,1-.08C126.12,21.46,130.82,19.59,134,22.22Z" transform="translate(0 -5.05)"/><path class="cls-13" d="M168.66,75.09c0,.52,0,1,0,1.54-18.72.44-37.43-.23-56.15-.41-4.09,1.83-8.54,1-12.91,1-11.22.09-22.43-.69-33.65.16l-.43,0-.42.07c-3.48-.17-7,.13-10.4-.87-1.95-1.08-4.38-1.07-6.61-1.5-1.75-.34-4.06-.71-2.4-2.72q41.26.71,82.55,1.4c7.1.13,14.19.18,21.29.09C155.89,73.73,162.28,74.62,168.66,75.09Z" transform="translate(0 -5.05)"/><path class="cls-18" d="M259.42,47.39a3.1,3.1,0,0,1,3,1.81c1,1.66,1.82,3.42-.33,4.83a3.07,3.07,0,0,1-4-.53c-.18-.19-.34-.16-.71.1-2.69,1.88-5.47,1.77-8.31.22h0c-1.39-1-.3-2.36-.9-3.37,0,1.07.68,2.31-.58,3.38-4.53.3-8.89-.77-13.36-1-9.75-.66-19.72.55-29.25-2-3.14-.83-6.69,1.31-9.71-.64-2.63-1-5.19,1-7.81.11-2.23-.46-4.65.17-6.81-.61a3.41,3.41,0,0,0-2.91.25,4.42,4.42,0,0,1-4.25,0c-.27-.26-.61-.48-.88-.73-1.19-1.05-4.42-1.13-3.77-2.87.57-1.53,3.24-1.35,5.19-1.56,4.94-.6,10-3.52,14.72.32.42.13.85.26,1.28.37,3.55-1,7.23-.62,10.9-.58a23.49,23.49,0,0,1,3.36.36C222.67,46.33,240.91,48.69,259.42,47.39Z" transform="translate(0 -5.05)"/><path class="cls-12" d="M399.1,19.13c-9.47.73-18.84-.47-28.26-.74-.84-1.32.21-2.07,1.56-2.74a3.67,3.67,0,0,1,1.25,0c3.17,1.57,3.27-2.1,5.69-1.69,1.81.31,2.16,3.09,5.09,1.54a.58.58,0,0,1,1,0A29,29,0,0,1,397,15.21a28.46,28.46,0,0,0,9.25-.07c4.31-.57,8.36.51,12.55.5a2.18,2.18,0,0,1,1.65.46c1.95,1.8,2.24,1.93,4.24.47,1.4-1,2.82-.85,4.24-.76s4,.21.77,1.65c-.73.33-.2.84.57.88,1.74.13,3.86.76,5.15-.16,3.63-2.6,7.68-1.74,11.79-1.28.43,2.9-1.44,3.66-5.16,3.55-8.19-.29-16.39-.33-24.59-.41-4.85,0-9.57-1.4-14.48-.76A4.34,4.34,0,0,0,399.1,19.13Z" transform="translate(0 -5.05)"/><path class="cls-19" d="M55,75.87c2.2,0,4.41-.08,6.61-.07,1.6,0,3.09.23,3.51,1.62-7.3,5.29-17,5.22-27.07,6.4,1.09-2.47,1.92-4.39,3-6.8-3.89,1-7.41.87-10.9.91a8.05,8.05,0,0,1-4.22-.59c-.63,0,.18-1-.89-.75-.47.34-.84.75-1.3,1.1a4.24,4.24,0,0,1-1.14.59,1.17,1.17,0,0,1-1.15-.39c-2.64-.86-4.53-2.85-8.23-2-2.53.57-1.57-3-5.69-2a8.19,8.19,0,0,1,6.93-2.75,14.5,14.5,0,0,1,7.7,1l-.08,0c3.54,1.33,7.22,1.14,11,.61,1.29-.18,3.69-.22,3.72.14.1,1.35.59,1.53,2.26,1.16a10.4,10.4,0,0,1,5.2.15,17.54,17.54,0,0,0,5.77.86A9.41,9.41,0,0,1,55,75.87Z" transform="translate(0 -5.05)"/><path class="cls-8" d="M249.08,53.82c2.64-.77,6.22,1.26,8.23-1.52.67-.95,1,.14,1,.35.41,1.23,1.73,1.54,3,1.16,1.75-.55.7-1.54.27-2.39s.58-1.47.8-2.22c2.58-.53,5.17,0,7.74,0,1.18,1.91-2.78,1.56-2.74,3,1.95-1.5,4.66-1.65,7-2.36,9.86-.05,19.7.51,29.51,1.13.16,3.08-3.3,2.82-5.94,3.24-2.46.38-4.75-.66-7.29-.56-.63-.35-.39,1-.12.4.06-.08.26,0,.65.12a5.07,5.07,0,0,1,2.51,1.52c.68,1.37-.15,2.27-1.81,2.9A314.39,314.39,0,0,0,257,56.7C253.77,56.72,250.19,57,249.08,53.82Z" transform="translate(0 -5.05)"/><path class="cls-10" d="M291.94,58.6c.42-.91.83-1.83,1.24-2.74,1.32-1.66,3.7-1.92,5.75-1.51,3.06.63,6.07.36,9.11.39,1.5,2.31,2.06,2.42,5.24,1,1.41-.73,1.36-2,2.1-3,1.76-1.91,4.49-1.65,7.12-1.61,1,0,.79,2.68,2.81.71,3.58-.81,4.43.71,4,2.71-.2.9-.78,1.77-.57,2.72l0,.25,0-.25a7.8,7.8,0,0,1,4.49-1.64l0,0c0-.66,0-1.31,0-2,1.05-.5,1.84-1.22,2.94-1.69,1.41,0,3-.47,4,.73,1.26,2.71,5.09,4.13,6.58,6.73a3.44,3.44,0,0,1-2.85,1c-13.33-1.35-26.78-.67-40.15-1.09C299.8,59.31,296,58.17,291.94,58.6Z" transform="translate(0 -5.05)"/><path class="cls-20" d="M48.31,64.37c4.9-1.13,9.58-.83,14.71-.18a90.92,90.92,0,0,0,13.16.21c8.52-.24,17.07,0,25.62.08,2.87,0,4.76,2.43,8,1.88l0,0C108.13,69.51,104,69,100.87,69a105.81,105.81,0,0,1-17-.88,37,37,0,0,0-14.26.62c-2,.47-3.51-.28-5.15-.63C61.62,67.49,58.9,67,56,67.83a8.53,8.53,0,0,1-7.84-1.49C47.37,65.65,47.37,65,48.31,64.37Z" transform="translate(0 -5.05)"/><path class="cls-18" d="M420.28,52c3.54-.33,7.23.05,10.6-1.08,2.75,2.25,6.42,1,9.4.83,7.53-.48,14.83-1,22.45.23,4.81.81,10.16,0,15.26,0l17,.1c-2,3.29-6.28,2.91-10,3-8.68.23-17.37,0-26.06.1-2.81,0-5.4-.27-7.9,1.56-2.77,2-6.76.83-10.25.53l-14-.09c-2.5,0-2-.19-3.3-2.18C423,54.06,418.92,54.56,420.28,52Z" transform="translate(0 -5.05)"/><path class="cls-21" d="M127,9.84c10.9-.92,21.68.77,32.54.86,11.5.1,23-.14,34.49.28,6.41.23,12.68.1,18.89,1.46a15.15,15.15,0,0,0,7.22-.35,1.31,1.31,0,0,1,1.55.61c.31.68-.09,1.35-1,1.52a16,16,0,0,1-6.58,0c-2.85-.73-5.68-.59-8.56-.68-15-.44-30-1-44.93-1.33-6-.14-12,.43-18,.2-5.16-.19-10.41.21-15.5-.74C126.38,11.07,126.35,10.47,127,9.84Z" transform="translate(0 -5.05)"/><path class="cls-8" d="M164.66,49.05c-.21,1.34-1.35,1.75-3.12,1.94-5.15.58-9.93-1.08-15-1.16a1.77,1.77,0,0,1-1.93-2.13c.31-2.25-2.23-2.36-4.09-3a2.05,2.05,0,0,1-.79-1.82c0-.52,1.09-1.28.22-1.52-1.68-.47-2.38,1-3.7,1.4a4.55,4.55,0,0,1-2.71-.15,6.05,6.05,0,0,0-4.39-1.48c-2.34.17-4.27-.41-4.2-2.53,1.36-2.63,4.46-2.3,7.31-2.13,3.11.2,6.16.75,9.31.68l3.45,0a127.54,127.54,0,0,1,25,1.42c1.62.52,2.45,1.36,1.64,2.63s-2.64,1.68-4.45,1.24c-4.07-1-8.27-.55-12.42-.77-2.5-.12-4.79.1-6.53,1.48,1.87,1.4,2.67-.07,3.78-.69,1.49-.83,2.79-.81,3.84.42C155.48,47.35,162.5,46.43,164.66,49.05Z" transform="translate(0 -5.05)"/><path class="cls-19" d="M361.44,86.65a151.79,151.79,0,0,1,19.77.57c6.78.54,13.67.36,20.51.49-.15,1.19-1.14,1.69-2.72,1.7-.19,1.39.3,3.19-3.17,2.27a7.38,7.38,0,0,0-6.36,1c1.76,1.19,4.28.06,6,1.12.61,1.74-2,1.25-2.83,2.06-1.59,1.64-3.16,1.32-4.8-.07-1-.84-2.11-1.93-3.44-2.18-5.21-1-9.8-3.54-15.53-3.17-2.76-.6-5.76-.53-8.39-1.55C359.1,87.74,360.23,87.18,361.44,86.65Z" transform="translate(0 -5.05)"/><path class="cls-13" d="M19.21,46.85l2.76-.1c1.69-.1,2.66-.77,3-2a7.18,7.18,0,0,1,3.63-.35c-.06.53.8,1.11.89,1C33.64,41.23,39,43.87,43.75,44c-.8-.91-3.55.64-3.86-1.3,2.68-2.36,6.56-2.28,10.24-2.62a36,36,0,0,1,8.37.19c2.13.38,4.38.87,3.24,3.09l-.39-.15c-1.54,1.42-3.43,1.09-5.44.53,1.19,1,4.2.19,4.17,2,0,1.34-1.88.87-3.1.93.1.23.33.05.5.09,1.31.32,2.66.61.93,1.76q-18,.27-36,.55a8.52,8.52,0,0,1-5-1C17.18,47,17.82,46.65,19.21,46.85Z" transform="translate(0 -5.05)"/><path class="cls-14" d="M70.88,15.55c-2.13,1.15-4.61.81-7,.79a140.38,140.38,0,0,0-30.46,2.94c-10.24-.78-20.5.72-30.88-.39l4-.83A13.06,13.06,0,0,1,12,16.48c15.36-1.54,30.86-1.37,46.32-1.65A88.42,88.42,0,0,1,70.88,15.55Z" transform="translate(0 -5.05)"/><path class="cls-21" d="M467.33,66.29a10.19,10.19,0,0,1-4.08,0c-3.18-.25-6.52-1.86-9.34.59a10.59,10.59,0,0,1-5.42.31,1.26,1.26,0,0,1-.49-1.72c.95-1.22,3.06-1.1,4.35-1.93,5.49-.42,11-1.85,16.44-1.07,5.66.81,10.65-2.23,16.15-.78,4.83-2.57,11.14.31,15.75-2.48,1.33,1.31-1.51,1.52-.73,2.6.65.88,2.77.36,2.85,2.12-5.49-1-10.65.73-16.47-.08s-12.17.62-18.29,1.15C467.75,65.06,467.56,65.86,467.33,66.29Z" transform="translate(0 -5.05)"/><path class="cls-7" d="M127,9.84c0,.6.07,1.2.13,1.8H50.54c1-1.74,2.87-1.71,4.53-1.69,11.47.18,22.9-.16,34.35-.89a41.81,41.81,0,0,1,7.18.63c7.07.81,14.11,0,21.16,0C120.85,9.68,124,9.14,127,9.84Z" transform="translate(0 -5.05)"/><path class="cls-21" d="M321.25,17.39c-10.22-.05-20.52.5-30.6-.34-7.63-.63-15.45.28-22.89-1.48-1.06-1.15.41-1.49,1.26-2,11.29.31,22.61.35,33.84,1.06,4.91.31,9.47.76,14.17-.65,1.16-.35,3,.38,4.47.61C322.51,15.56,322.39,16.5,321.25,17.39Z" transform="translate(0 -5.05)"/><path class="cls-21" d="M21.43,42.31a45.53,45.53,0,0,1-15.3-1.43c-.33-1.82,2.74-1.19,3.25-2.34,2.31-1.37,5.6-.59,7.91-2-1.65-1.28-7.11,0-5.24-3.82h0a6.24,6.24,0,0,1,3-1.18c6.48-.15,13-.49,19.44.19a5.84,5.84,0,0,1,1.81.74c1.86,3-.68,4-4.16,4.2-2.62.19-5.38,0-5.65,2.67C25.77,41.18,23.38,41.55,21.43,42.31Z" transform="translate(0 -5.05)"/><path class="cls-8" d="M195.3,50.26c3-.61,6.64.73,9.1-1.6.41-.38,1.67-.21,1.73.14.68,4.47,5.42,2,8.06,2.16,4.53.32,9.28,1.25,13.78-.23,1.52-.5,1.89.22,2.29,1,.75,1.42,2.63.82,4,1.14-.27,1.88-1.25,3-4.31,2.35-1.45-.3-3.1-.07-4.56-.34-9.25-1.71-18.88-.37-28.19-1.87C194.17,52.51,195.44,51.34,195.3,50.26Z" transform="translate(0 -5.05)"/><path class="cls-20" d="M440.52,56.71a6.75,6.75,0,0,1,3.77-.43c2.78.41,2.81.31,6.43-1.9,1.32-.8,2.92-.54,4.38-.52,10.17.16,20.33,0,30.5-.26A26.93,26.93,0,0,0,495,52.08h9.16c0,2-2.87,1.6-3.42,2.73-9,1-18.18,1.61-27.26,2.39-1.93-.11-3.86-.09-5.78-.11-1.14,0-2.26,0-3.38.06-6.62.14-13,1.79-19.73,1.51a15.13,15.13,0,0,1-4.37-.51l-.07-.25.29-.14c-.42-.24-.56-.48-.41-.71S440.37,56.71,440.52,56.71Z" transform="translate(0 -5.05)"/><path class="cls-9" d="M168,58.71h.08c-13.64-1.67-27.51-.86-41.22-2-4.18-.33-8.45.43-12.62-.5-1.2-.66-1.29-1.46-.47-2.33,10.15-.53,20.28.21,30.42.43,7.07.15,14.12.47,21.18.72a11.69,11.69,0,0,1,4.51.54,1.45,1.45,0,0,1,.67,1.28C170.1,57.81,169.75,58.77,168,58.71Z" transform="translate(0 -5.05)"/><path class="cls-21" d="M265.1,15.56c-3.06,1.43-6.63,1-9.67.57a91.45,91.45,0,0,0-17.79-.64c-4.23.17-8.17-1.49-12.42-.58-1.07.23-1.44-.61-1.51-1.24a1.31,1.31,0,0,1,1-1.61c2.52-.52,5.85-1.36,7.61-.42,3.36,1.75,7.77-.34,10.53,2.07,3.09-2.33,6.8,0,10-.65s5.59.85,8.45.56C262.18,14.67,265.77,13,265.1,15.56Z" transform="translate(0 -5.05)"/><path class="cls-9" d="M380.9,73.44a17.36,17.36,0,0,1,7.59-1.35c13.29,0,26.6,0,39.89,0,.25,2.09,3.17.88,4.09,1.51-10.34.71-21.14-1-31.51,1.46-2.25.54-3.85-1.88-5.68-.06-6.81-1-6.93-1.16-11-.1C381.7,75.58,382.05,73.85,380.9,73.44Z" transform="translate(0 -5.05)"/><path class="cls-19" d="M65.94,77.36c.82-1.14,2.22-1.49,3.89-1.49,14.22,0,28.45-.24,42.67.35,0,1.74-1,2.57-3.6,2.64a73.09,73.09,0,0,1-13.89-1A3.76,3.76,0,0,0,91,78C89.3,79.9,87.71,81.56,84.46,79a6.58,6.58,0,0,0-5.58-1C74.27,79.63,70.24,77.39,65.94,77.36Z" transform="translate(0 -5.05)"/><path class="cls-22" d="M164.66,49.05c-2.32-.5-4.68-.95-7-1.54-3.88-1-3.86-1-2.48-4.44,2.92-1.58,6.26-1.17,9.52-1,2.7.14,5,1,7.73-1,2.4-1.79,2.42.94,3.13,2a3.54,3.54,0,0,1-1.54,3.13l-4.76.21c2.48,1,4.58,1.67,5,3.36a1.07,1.07,0,0,1-1.57.28C170.06,49.6,167.5,48.71,164.66,49.05Z" transform="translate(0 -5.05)"/><path class="cls-12" d="M346.75,59.56c-3.84-1.41-8-2.67-6.58-6.73,5.37.14,10.82-.29,16,1.28.9.47,1.58,1,1.53,1.88s.47,1.47,1.7,1.69c1.47.25,2.1,1,2.17,2l.34.13-.1.27c-2.46.63-4.57-.79-7-.6Z" transform="translate(0 -5.05)"/><path class="cls-13" d="M277.09,21.31c-.6,1.17-1.19,2.34-1.84,3.64-2.18-.68-3.58-2.38-6.14-.15-1.22,1.08-5.52.93-8.16.5-5.71-.95-11.45-.18-17.1-.71-1.56-.66-3.9-.91-2.88-2.9,6.64.29,13.32-.38,19.93.53a3.83,3.83,0,0,0,3.21,0C268.19,20.06,272.74,21.45,277.09,21.31Z" transform="translate(0 -5.05)"/><path class="cls-7" d="M58.41,48.47c-.32-1.86-3.09-.73-4.39-1.86,1.5-.92,3.37-.32,4.82-.84-1-1-3.47-.59-4-2.23l6.51-.36c.57,1.16,2,1.5,3.33,2.12,3.82,1.81,3.75,1.79,6,2,8.82.61,17.67,1,26.55.92,1.43,0,2.69.2,2.74,1.5-12.37.36-24.66-1-37-.62A30,30,0,0,1,58.41,48.47Z" transform="translate(0 -5.05)"/><path class="cls-18" d="M170,56.52l-.09-.9c8.59.14,17.23-.19,25.69,1.33.23.43.29,1,.73,1.29,1.22.88,4.87.37,3.72,2.48-.78,1.42-3.56.76-5.47.66a15.22,15.22,0,0,1-3.12-.8c-1.22-.74-2.34-1.72-4.21-.88l-.42,0-.43,0c-3.68-1.52-7.38-1-11.1,0l-.55.07-.57-.06C172.86,58.55,170.16,58.38,170,56.52Z" transform="translate(0 -5.05)"/><path class="cls-9" d="M424.58,64.88a2.65,2.65,0,0,1-2.49,1.36c-9.8-.36-19.41,1.74-29.25,1.15-2.41-.15-4.55-.09-4.7-2.35a5.31,5.31,0,0,1,1.23-.35C401.11,64.37,412.86,64,424.58,64.88Z" transform="translate(0 -5.05)"/><path class="cls-9" d="M241,21.69c.95,1,1.91,1.93,2.88,2.9-3.13.65-6.16-.19-9.12-.5-8.2-.91-16.67,0-24.7-1.82a1.15,1.15,0,0,1,.22-2c3.57-.33,7.13,1.24,10.71,0,.31-.5.73-.58,1.3-.17,4.4,1.08,9,1,13.58,1.11C237.57,21.28,239.35,21,241,21.69Z" transform="translate(0 -5.05)"/><path class="cls-7" d="M337.4,24.06c-4.1,2.92-4.08,2.83-12.27,2.56-3-.1-6,.54-9.06.24-.9-.68-.8-1.37-.05-2.06,2.36-.58,4.94.15,6.77-.31-3.08,0-6.65.18-10.24.38a5.2,5.2,0,0,1-1.74-.89,3.82,3.82,0,0,0-.46-.9c1.6-1.52,3.93-1,6-1,3.46-.06,6.93,0,10.4,0a3.71,3.71,0,0,0,2.73.35c2.51-.15,5-.36,7.28.76.57-.07.87.09.9.5S337.58,24.06,337.4,24.06Z" transform="translate(0 -5.05)"/><path class="cls-8" d="M12,16.48a5.94,5.94,0,0,1-5.49,1.58c-1.76-2.86-1.42-5.68.23-8.49,4.09-1,8.55.69,12.54-.94V8.7c3.86-1,7.71-1.74,11.52.1,0,.48,0,.95,0,1.42-2.14,2.41-5.54.91-8.3,1.38-3.12.53-6.39.62-9.2,1.93-.27.2-.51.55-.82.59C8.91,14.57,11,15.58,12,16.48Z" transform="translate(0 -5.05)"/><path class="cls-21" d="M415.14,24.24,390.88,24c-1.78,0-3.66.08-3.77-1.76,13.95.09,27.91-.39,41.84.25.45,0,.87.63,1.5,1.13-3,.9-5.87.33-8.63.55a1.1,1.1,0,0,1-1.48,0Z" transform="translate(0 -5.05)"/><path class="cls-19" d="M421.8,87.44l7.89-.17c.44,2.24-.91,3.51-4.06,3.09a26.75,26.75,0,0,0-15,2.42c-2,.91-3.85,1.59-4.21,4.27-1.67-3.69,1.65-6.92-2.12-9.37l5.5-.05C413.81,88.08,417.82,88.42,421.8,87.44Z" transform="translate(0 -5.05)"/><path class="cls-21" d="M446.1,23.26c11.27-.26,22.39,1.54,33.74,1.19-3.09,2.44-7.06,1.5-10.61,1.46a109.54,109.54,0,0,0-11.81,1c-4.09.41-7.66-1.31-11.52-2C445.26,24.3,445,23.74,446.1,23.26Z" transform="translate(0 -5.05)"/><path class="cls-19" d="M431.11,87.15c1.9-.58,3.92-.31,5.89-.43,4.2-.26,8.44.53,12.67-.68,1.47-.41,5.07-1.48,5.52,1.52-6.31,2.43-13.14,2.82-20.14,2.86C431.61,90.44,430.85,89.22,431.11,87.15Z" transform="translate(0 -5.05)"/><path class="cls-7" d="M210.25,20.31c-.08.65-.16,1.31-.22,2A196.11,196.11,0,0,1,182,21.52a.77.77,0,0,1,.1-1.31c2-1.4,4.47-1.28,6.92-1.17C196.07,19.38,203.23,19.27,210.25,20.31Z" transform="translate(0 -5.05)"/><path class="cls-12" d="M14.65,28.26c5.59,1,11.3.2,16.93.52,3.71.2,7.44.13,11.16.18a1.77,1.77,0,0,1,.88,2c-.79,1.6-2.75,2-4.74,2.38a3.77,3.77,0,0,1-2.73-.64l0,0c-7.4-1.87-15.1-.4-22.62-1-2.56-.58-5.34-1.07-2.36-3.54Z" transform="translate(0 -5.05)"/><path class="cls-19" d="M457.89,87.6a13.43,13.43,0,0,1,7.72-2c3.69.13,7.38,0,11.07,0,3.7,2,8.17.18,12.15,1.22-.13,1.65-1.83,1.54-3.24,1.59-8.76.35-17.57-.48-26.32.58C458.32,89.11,458.07,88.22,457.89,87.6Z" transform="translate(0 -5.05)"/><path class="cls-12" d="M472.58,55.85c9.39-.48,18.73-1.52,28.19-1a5.43,5.43,0,0,0,1.14.1c.38.17.51.34.42.54s-.2.3-.32.3c-6.9.66-14,.62-20.55,2.65a16,16,0,0,1-10.16.28C469.8,57.29,471,56.53,472.58,55.85Z" transform="translate(0 -5.05)"/><path class="cls-9" d="M321.25,17.39c.08-.95.16-1.88.25-2.82l29.06,1.07c1.15.2,1.84.62,1.49,1.55-7.81,1.8-15.72.19-23.57.27C326.06,17.48,323.65,17.42,321.25,17.39Z" transform="translate(0 -5.05)"/><path class="cls-8" d="M475.3,37.53c-1.3,1.17-3,1.8-5.94,1.83,2.21-1.85-4.08-3.4.63-5.33-4-1.09-8.57-.48-12.23-2.3l24.76.06c.07.37.14.74.22,1.11-3.55,1.08-6.45,3.13-10.78,3C472,37.91,474,37.33,475.3,37.53Z" transform="translate(0 -5.05)"/><path class="cls-12" d="M337.4,24.06c-.21-.32-.43-.63-.63-.93,3.9-1.82,8.21-.55,12.16-.43,7.43.22,14.88.06,22.32.35-1.17,1.7-3.26,1.78-5.58,1.87a175.27,175.27,0,0,1-20.27-.73C342.68,24,339.92,26.28,337.4,24.06Z" transform="translate(0 -5.05)"/><path class="cls-7" d="M55,75.87c-6,1-11.79-1.41-17.78-.74-2.12.23-.38-2.92-3.49-1.86a22.79,22.79,0,0,1-5.21.65c-2.57.2-4.88-.18-6.46-1.83,7.89-.45,15.78.18,23.66.23.14,2.15,2.39,1.67,4.21,1.75C51.93,74.15,54.33,73.73,55,75.87Z" transform="translate(0 -5.05)"/><path class="cls-9" d="M33.43,52c2,1.7,2,1.7,7,2.58C32.85,56,26.64,57.06,20.05,55.8c1.07-.55,1.79-1.2,1.47-2.22.61-2.4,4.13-.19,5.29-1.72C29,51.78,31.24,51.29,33.43,52Z" transform="translate(0 -5.05)"/><path class="cls-7" d="M483.81,29.49c-.08,1.18-1.13,1.23-1.92,1.24-7.32.06-14.66.08-22,.07-1.33,0-3.09-.05-3.15-1.21s1.72-1.36,3-1.2c6.4.83,12.86.31,19.29.44C480.72,28.86,482.52,28.68,483.81,29.49Z" transform="translate(0 -5.05)"/><path class="cls-19" d="M357.42,91.36c-4.9-.44-10.07.93-14.79-1.43-1-.51-3.35.33-5.09.54-.23-.19-.47-.38-.69-.58a1.73,1.73,0,0,1,.59-2.11c7.11-1.55,14.16-.79,21.21.31C360.06,89.53,358.58,90.41,357.42,91.36Z" transform="translate(0 -5.05)"/><path class="cls-13" d="M21.43,42.31c-.29-2.23,2.93-1.31,4-2.3,2.22-2.67,5.52-1.78,8.68-1.35,2,1.42,6.64,1.58,4.45,4.93-3.12.1-6.24.59-9.3-.25C26.54,43.48,24,42.75,21.43,42.31Z" transform="translate(0 -5.05)"/><path class="cls-15" d="M444.65,57.89A82.26,82.26,0,0,0,457,56.69a14.23,14.23,0,0,1,7.16,0c1.41.24,2.78-.26,4.2-.09,1.06.65,1.27,1.35.24,2.12-7.94,1.19-16,.46-24,.67C443.78,58.86,443.75,58.38,444.65,57.89Z" transform="translate(0 -5.05)"/><path class="cls-7" d="M308.6,23.08A4.84,4.84,0,0,1,303.4,26c-2.64-.14-5.33.23-7.94.07-2.86-.18-5.78-.57-6.84-3l3.23.13c1.25,0,2.7-.45,3.72-.12,2.95.94,2.21-1.15,3.18-1.79C302.16,21.53,305.7,21.43,308.6,23.08Z" transform="translate(0 -5.05)"/><path class="cls-9" d="M171.08,20.59c-6.09,1.38-12.31.42-18.46.6-1.76.75-3.33.75-4.64-.53a1.65,1.65,0,0,1,.61-2.13c3.17-.5,6.32-.1,9.46,0,3.11-.72,6.23,1.28,9.32-.05l3.88,0C172.36,19.25,172.4,20,171.08,20.59Z" transform="translate(0 -5.05)"/><path class="cls-21" d="M452.41,93.27a114.27,114.27,0,0,1,26.47-.53C474.87,94.49,461.94,94.84,452.41,93.27Z" transform="translate(0 -5.05)"/><path class="cls-21" d="M437.27,67.59c-2.67,1.12-5.58.12-8.35.47-1.81-.83-1.44-1.83-.46-2.89.27-1.14,1.3-1.59,2.81-1.58,3.29,0,6.65-.45,9.86.51a1.89,1.89,0,0,1,0,1.92C440.3,67.15,438.79,67.35,437.27,67.59Z" transform="translate(0 -5.05)"/><path class="cls-12" d="M30.83,8.8,19.31,8.7a4.43,4.43,0,0,1,3.24-1.5c7-.51,14-1.72,21.1-1.36A1.32,1.32,0,0,1,45.13,7C40.72,8.62,35.32,7.2,30.83,8.8Z" transform="translate(0 -5.05)"/><path class="cls-21" d="M486.56,15.14c-8.69,1.06-16.92-.13-25.13-1.58C470,12.89,478.33,13.91,486.56,15.14Z" transform="translate(0 -5.05)"/><path class="cls-13" d="M13.34,13.53c-.36-1.45.83-1.79,2.51-2.16,4.92-1.09,10.06-.36,15-1.15l4,.33c.43.25.53.48.34.67a.78.78,0,0,1-.52.26C27.83,13.64,20.36,12.33,13.34,13.53Z" transform="translate(0 -5.05)"/><path class="cls-17" d="M113.76,53.93c0,.45,0,.91,0,1.37a2.73,2.73,0,0,1-3.15,1.21c-7.38-1.39-14.93-.07-22.32-.81-1.09-.14-2.37-.33-2.49-1.2-.18-1.19,1.29-1.37,2.56-1.56Z" transform="translate(0 -5.05)"/><path class="cls-20" d="M306.71,89c-5,1-10.66-1.87-14.94,2.45,0-4.77.25-4.71,5.29-5C301,86.23,303.53,88,306.71,89Z" transform="translate(0 -5.05)"/><path class="cls-12" d="M190.2,75.93a15.51,15.51,0,0,1-5-.19c0-.73-.37-2.23.71-1.93,3.75,1,6.93-1.13,10.6-.5s7.3.74,10.91,1.73H194.25C192.77,75,191.09,74.56,190.2,75.93Z" transform="translate(0 -5.05)"/><path class="cls-21" d="M419.18,29.18c-2.65-.11-5.31-.37-7.95-.29a7.2,7.2,0,0,1-6.09-2.54c1.64-.53,3.13-2.18,4.59.19s3.53.85,5.39.3l13.06,1c1,.4,1,.79,0,1.19Z" transform="translate(0 -5.05)"/><path class="cls-8" d="M172.74,50c.51-.09,1-.2,1.57-.28,1.37.17,2.4-.46,3.54-.81a2.92,2.92,0,0,1,2.88.15c.38.14.85.46,1.11.39,3.62-1,3.62-1,5.65.93-.28.59-.61,1.26-1.58,1.3-3.39.11-6.78.13-10.18.18C174,51.9,172.9,51.3,172.74,50Z" transform="translate(0 -5.05)"/><path class="cls-12" d="M48.31,64.37c-.05.66-.1,1.31-.16,2A17.16,17.16,0,0,0,43,67a17.69,17.69,0,0,1-2.91.26c-3.44.33-6.8.41-11-1.65C36.53,66,42.15,63.56,48.31,64.37Z" transform="translate(0 -5.05)"/><path class="cls-12" d="M133.81,42.24l2.77,0a3.67,3.67,0,0,1,3.95.09c0,.78,0,1.57,0,2.35L134,44.41c-2-1.41-3.7-.15-5.51.27a3.06,3.06,0,0,1-2.65-.34c-.85-1.34-2.22-1.21-3.69-.65-2,.75-2.71.08-2.92-1.25,2.06-1.59,4.64-1.42,7.25-1.13.74,0,1.46,0,2.19,0A8.06,8.06,0,0,1,133.81,42.24Z" transform="translate(0 -5.05)"/><path class="cls-19" d="M328.05,85.52h4c1,.77,2.12,1.52,2.23,2.68a2.15,2.15,0,0,1-.38,1.19,3.14,3.14,0,0,1-2.1.61c-.41,0-.86-.37-1.18-.25-.8.27-.11-.3.22.32.66.34,1.45.44,2.08.79l.49.48c-2.62,2.8-3.42,2.7-6.69-.83a1.58,1.58,0,0,1,0-2.54Z" transform="translate(0 -5.05)"/><path class="cls-12" d="M171.08,20.59c0-.69.12-1.39.17-2.09a21.07,21.07,0,0,1,10.81,1.71c0,.44-.07.88-.1,1.31C178.05,23,174.59,21.54,171.08,20.59Z" transform="translate(0 -5.05)"/><path class="cls-7" d="M235.74,6.05l-1.32,1.44c-6.53.59-12.81-.59-19.6-.87.65-.64.91-1.08,1.12-1.07C222.55,5.69,229.13,5.87,235.74,6.05Z" transform="translate(0 -5.05)"/><path class="cls-19" d="M29.44,78.87c1,1.27,3.36.62,5,1.75-1.86,1.6-3.67,2.95-6.35,1-1.56-1.13-4-.41-5.33-1.65-.72-.7-.83-1.39,0-2.09h0C25.36,76.78,27.36,78,29.44,78.87Z" transform="translate(0 -5.05)"/><path class="cls-9" d="M88.32,52.94c.2.84-3.14.6-1.16,2,.53.92-.49,1.26-1.23,1.7-.22,0-.57.07-.62,0-2.09-2.42-5.84-2.87-9.08-3.91A39.52,39.52,0,0,1,88.32,52.94Z" transform="translate(0 -5.05)"/><path class="cls-18" d="M29.3,43.34l9.9-.13.42,0c1.88.26,3.91-.29,7,1H32.39c-.15,1.35,2.78,1.34,1.43,2.48s-4.19.61-5.38-.79c-.27-.33.08-.92.14-1.38Z" transform="translate(0 -5.05)"/><path class="cls-18" d="M357.42,91.36c-.27-1.21.92-1.9,1.84-2.69.14-.43.44-.51.9-.2,3,.46,7-1.44,8.67,2C365.11,91.26,361.43,92.29,357.42,91.36Z" transform="translate(0 -5.05)"/><path class="cls-21" d="M433.68,94.72c-4.95,2.19-9.29,3.11-14.17,1.32C424,96,428,93.29,433.68,94.72Z" transform="translate(0 -5.05)"/><path class="cls-7" d="M34.67,11.48a1.53,1.53,0,0,1,.18-.93C39,9.33,43.07,9,47.51,10.89,43.08,13.28,38.75,11,34.67,11.48Z" transform="translate(0 -5.05)"/><path class="cls-9" d="M16,55.78c0,.66,0,1.32,0,2-3.28.08-6.6.27-9.57-1.69C9.72,54.35,12.9,55.45,16,55.78Z" transform="translate(0 -5.05)"/><path class="cls-7" d="M477.51,18.9c5.76-1,9.63-.59,13.12,1.39A40.44,40.44,0,0,1,477.51,18.9Z" transform="translate(0 -5.05)"/><path class="cls-21" d="M468.65,45.12c.09-1.09-.21-2.46,1.92-2.62a44.36,44.36,0,0,1,7.29,0c.91.09.33,1,0,1.62A55.7,55.7,0,0,0,468.65,45.12Z" transform="translate(0 -5.05)"/><path class="cls-9" d="M494,69.14l.06-1.67c3.33-.63,6.62-.1,10.71.23C501.17,69.91,497.5,69.15,494,69.14Z" transform="translate(0 -5.05)"/><path class="cls-9" d="M440.41,65.67l.7-1.57a45.91,45.91,0,0,1,11.24-.52c-.52,1.48-2.54,1.47-4,2.07A11.25,11.25,0,0,1,440.41,65.67Z" transform="translate(0 -5.05)"/><path class="cls-10" d="M372.4,15.65c-.52.92-1,1.83-1.56,2.74a1.67,1.67,0,0,1-2.62.11c-.55-1.48-4.57.39-4.05-2.14C366.71,14.91,369.63,15.74,372.4,15.65Z" transform="translate(0 -5.05)"/><path class="cls-12" d="M167.37,18.52c-3.07,2.22-6.19,1.34-9.32.05,1.31-1.64,2.78-2.87,5.19-.87C164.41,18.68,166,18.14,167.37,18.52Z" transform="translate(0 -5.05)"/><path class="cls-9" d="M385.74,65c-2,3-3.91,3.14-6.81.51C381,64.1,383.44,65.05,385.74,65Z" transform="translate(0 -5.05)"/><path class="cls-17" d="M26.81,51.86c-1,1.74-4,.41-5.29,1.72l-5.36-.11c-1.15-.67-1.11-1.34,0-2Z" transform="translate(0 -5.05)"/><path class="cls-21" d="M436.49,94.22c2.17,0,4.33-.08,6.5,0,2,.1,3.61-1.3,6.79-.15a35.89,35.89,0,0,1-13.09,1.32C436.63,95,436.56,94.61,436.49,94.22Z" transform="translate(0 -5.05)"/><path class="cls-20" d="M312.24,91.39a14.23,14.23,0,0,1-10,0A13.45,13.45,0,0,1,312.24,91.39Z" transform="translate(0 -5.05)"/><path class="cls-9" d="M373.61,65.24c-4.13,2.48-4.56,2.51-6.73.32C369,64.24,371.28,64.48,373.61,65.24Z" transform="translate(0 -5.05)"/><path class="cls-12" d="M148.59,18.53c0,.57,0,1.15,0,1.72a4.57,4.57,0,0,1-5.27-.1c.07-.45.15-.9.21-1.35C145.05,17.15,146.7,16.7,148.59,18.53Z" transform="translate(0 -5.05)"/><path class="cls-12" d="M19.32,8.63c-3.9,2.24-8.31,1-12.54.94C10.73,7.7,15.15,9,19.32,8.63Z" transform="translate(0 -5.05)"/><path class="cls-10" d="M372.08,59.8a26.82,26.82,0,0,1,8.39.22C376.92,61.68,374.5,61.61,372.08,59.8Z" transform="translate(0 -5.05)"/><path class="cls-18" d="M364.17,16.36c.59,1.44,3.75.43,4.05,2.14-2.44-.08-4.88-.16-7.31-.29-.83-.05-1.86-.05-2.05-.86-.28-1.15,1.07-1.29,2.08-1.33A18.75,18.75,0,0,1,364.17,16.36Z" transform="translate(0 -5.05)"/><path class="cls-10" d="M354.82,59.48c2.64-1.74,4.66.27,7,.6C359.07,62.2,357,60.56,354.82,59.48Z" transform="translate(0 -5.05)"/><path class="cls-22" d="M29.44,78.87l-6.73-1c0-1.33.93-1.92,2.71-1.9l-.05,0c.9,1.48,3.65.68,4.72,2C29.87,78.24,29.65,78.55,29.44,78.87Z" transform="translate(0 -5.05)"/><path class="cls-7" d="M22.1,72.12a18.55,18.55,0,0,1-7.7-1C18.07,69.4,19,69.52,22.1,72.12Z" transform="translate(0 -5.05)"/><path class="cls-18" d="M265.1,15.56c-.57-1.36-3.1-.72-3.8-1.94a28.51,28.51,0,0,1,7.72-.07c-.42.67-.83,1.35-1.26,2Z" transform="translate(0 -5.05)"/><path class="cls-10" d="M352.05,17.19l-1.47-1.55c1.29-.24,2.67-.44,3.64.38.62.54,1.71,1.36.51,2A2.22,2.22,0,0,1,352.05,17.19Z" transform="translate(0 -5.05)"/><path class="cls-9" d="M16.18,51.47c0,.67,0,1.33,0,2-1.69.3-3.52-.11-3.45-1.25C12.82,50.7,14.75,51.13,16.18,51.47Z" transform="translate(0 -5.05)"/><path class="cls-9" d="M56.19,52a4.19,4.19,0,0,1-5.34,0A6,6,0,0,1,56.19,52Z" transform="translate(0 -5.05)"/><path class="cls-18" d="M468.62,58.67a1.56,1.56,0,0,0-1.2-1.8c-.33-.17-.45-.34-.34-.53s.21-.26.32-.26a15.77,15.77,0,0,1,5.18-.23c-.53.92-1.38,1.77-1.28,2.83Z" transform="translate(0 -5.05)"/><path class="cls-9" d="M324.08,63.8c-2.51,2.19-3.29,2.17-5.47-.18A15.47,15.47,0,0,1,324.08,63.8Z" transform="translate(0 -5.05)"/><path class="cls-19" d="M337.54,90.47c-.5.86,1.32,2-.11,2.55-2.22.84-2.6-1.23-4.06-1.69l0,0c-.52-.45-.49-.87.07-1.27a4,4,0,0,1,3.78.18Z" transform="translate(0 -5.05)"/><path class="cls-7" d="M454.38,29.08a6.63,6.63,0,0,1-5.88.49A5.61,5.61,0,0,1,454.38,29.08Z" transform="translate(0 -5.05)"/><path class="cls-18" d="M444.65,57.89v1.45a10.44,10.44,0,0,1-4.24.1c-.05-.43-.11-.86-.16-1.3A9.2,9.2,0,0,1,444.65,57.89Z" transform="translate(0 -5.05)"/><path class="cls-9" d="M309.37,63c-1.44,2-2.83,2.07-4.2,0A8.41,8.41,0,0,1,309.37,63Z" transform="translate(0 -5.05)"/><path class="cls-9" d="M344.09,64.48a2.68,2.68,0,0,1-4-.08A4.67,4.67,0,0,1,344.09,64.48Z" transform="translate(0 -5.05)"/><path class="cls-12" d="M24.44,64.77c.71,0,1.4.13,1.49.65s-.65.73-1.29.7c-.41,0-1-.16-1.15-.36C23.22,65.22,23.74,64.92,24.44,64.77Z" transform="translate(0 -5.05)"/><path class="cls-9" d="M428.46,65.17c.15,1,.32,1.93.46,2.89-3.62.43-3.05-1.4-3-2.92Z" transform="translate(0 -5.05)"/><path class="cls-10" d="M326.65,88c0,.84,0,1.69,0,2.54a5.49,5.49,0,0,1-4.13-1c-.36-.21-.51-.45-.48-.72s.1-.41.2-.41Z" transform="translate(0 -5.05)"/><path class="cls-21" d="M422.07,31.7a2.11,2.11,0,0,1-2.51.69c-1-.4-1.43-1-.43-1.72A5.08,5.08,0,0,1,422.07,31.7Z" transform="translate(0 -5.05)"/><path class="cls-18" d="M19.21,46.85l-1.8,1.2c-1.6-.31-1.49-1.22-.76-1.79C17.71,45.43,18.55,46.19,19.21,46.85Z" transform="translate(0 -5.05)"/><path class="cls-21" d="M431.29,31.71c-1.58,2.28-1.64,2.28-4.11.08Z" transform="translate(0 -5.05)"/><path class="cls-21" d="M486.75,25.1c-.24.46-.83.58-1.49.4s-1.17-.49-.91-1c.1-.19.77-.32,1.16-.31C486.19,24.22,486.83,24.38,486.75,25.1Z" transform="translate(0 -5.05)"/><path class="cls-18" d="M25,44.8c.57,1.88-.7,2.32-3,2Z" transform="translate(0 -5.05)"/><path class="cls-7" d="M441.76,28.13c-.06.53-.11,1.06-.16,1.59l-1.93-.1c-1.46-.36-1.19-1-.51-1.7C440,28,440.89,28.05,441.76,28.13Z" transform="translate(0 -5.05)"/><path class="cls-18" d="M428.19,29V27.8c1.68.05,3.45-.35,5.27.62C431.78,29.54,429.92,29,428.19,29Z" transform="translate(0 -5.05)"/><path class="cls-21" d="M382.94,23c-.21.67-.08,1.62-1.5,1.54-.93,0-1-.78-1-1.36Z" transform="translate(0 -5.05)"/><path class="cls-9" d="M435.6,71.61l4.16-.24C438.61,73.68,437.1,72.65,435.6,71.61Z" transform="translate(0 -5.05)"/><path class="cls-20" d="M40.12,67.29c.83-.94,1.82-.86,2.91-.26C42.21,68.07,41.31,68.55,40.12,67.29Z" transform="translate(0 -5.05)"/><path class="cls-20" d="M109.77,66.36c1.09-1,2.42-1.24,4.38-.45-1.57.67-3,.37-4.41.43Z" transform="translate(0 -5.05)"/><path class="cls-9" d="M336.06,64.43c-1.18,1.25-2.07.91-2.8-.27A3,3,0,0,1,336.06,64.43Z" transform="translate(0 -5.05)"/><path class="cls-8" d="M247.62,53.83c.36-1-.54-2.2.77-3.12,1.39.92.48,2.08.71,3.11Z" transform="translate(0 -5.05)"/><path class="cls-18" d="M399.1,19.13a2.71,2.71,0,0,1,3.91.15A9.71,9.71,0,0,1,399.1,19.13Z" transform="translate(0 -5.05)"/><path class="cls-13" d="M91,78a2.82,2.82,0,0,1,4-.11Z" transform="translate(0 -5.05)"/><path class="cls-19" d="M384.68,96.74c-.18.05-.37.17-.53.14-.55-.1-.62-.33-.16-.55a.9.9,0,0,1,.56.07C384.66,96.46,384.64,96.62,384.68,96.74Z" transform="translate(0 -5.05)"/><path class="cls-20" d="M300.31,91a1.45,1.45,0,0,1-.51.14c-.55-.11-.61-.32-.14-.54a.82.82,0,0,1,.54.07C300.29,90.7,300.28,90.86,300.31,91Z" transform="translate(0 -5.05)"/><path class="cls-19" d="M322.27,88.34c.1.38.18.76.29,1.13-.69-.07-1.66.14-1.7-.64C320.85,88.68,321.79,88.5,322.27,88.34Z" transform="translate(0 -5.05)"/><path class="cls-21" d="M437.73,31.8a1.5,1.5,0,0,1-2.6-.09C436,31.74,436.87,31.76,437.73,31.8Z" transform="translate(0 -5.05)"/><path class="cls-22" d="M22.73,77.88V80a1.66,1.66,0,0,1-1.34-2.08Z" transform="translate(0 -5.05)"/><path class="cls-10" d="M385.46,15.52h-1c.16-.22.33-.43.5-.65C385.09,15.09,385.28,15.3,385.46,15.52Z" transform="translate(0 -5.05)"/><path class="cls-20" d="M502,55.75a2,2,0,0,0-.1-.84l1,.37Z" transform="translate(0 -5.05)"/><path class="cls-21" d="M425.71,31.79c-.47.57-.89.47-1.29,0Z" transform="translate(0 -5.05)"/><path class="cls-8" d="M259.42,47.39c.11,1.74-1.63,1.57-3.17,1.58-5.79,0-11.59.26-17.35,0-11-.48-22-1.21-33-1.89a9,9,0,0,1-2.37-.82,2.07,2.07,0,0,0-2.75,0c-3.57-.19-7.22.28-10.68-.71.7-1.35,1.66-2.66,1.36-4.18a2.36,2.36,0,0,1,2.78-1.09c.66,1.06,1.57,1.55,3.05.6a4.54,4.54,0,0,1,2.46.24c1.91,1.88,4.44,2.26,7.41,1.56a7.1,7.1,0,0,1,2.6.12c.67.78,1.25.78,1.73-.12a5.68,5.68,0,0,1,5.44-.64,6.61,6.61,0,0,0,2,.51c.67-.08,1.34-.18,2-.2l1.34,0c3.37-2.21,7.63,1.19,11-.9l3.45.95a10,10,0,0,1,2.66,1.8c2.06,2.36,5.54,1,8.28,1.58,3.83.78,8.15-.21,11.74,1.6Z" transform="translate(0 -5.05)"/><path class="cls-9" d="M301.24,36.55a7.84,7.84,0,0,1-6.21,2C287,38,278.81,38,270.72,37.51c-12.92-.69-25.88-1-38.76-2.22-1.42-.7-1.4-1.4,0-2.07,10,.21,20,.15,30,.73,7.8.44,15.56.46,23.36.45a68.47,68.47,0,0,1,15.82,1.4c.33.15.44.31.35.49S301.35,36.55,301.24,36.55Z" transform="translate(0 -5.05)"/><path class="cls-18" d="M301.24,36.55a4.73,4.73,0,0,1-.05-.75c11.92-1.09,23.75.65,35.63.65q7.29,0,14.56-.06c2.67,0,5.33,0,7.5,1.34v.54c-4.62.75-9.18,1.4-14,.45a16.05,16.05,0,0,0-6.55,0c-4.82,1.26-9.74.09-14.64.7s-10.14-.19-15.22-.09C305.14,39.42,303.42,37.81,301.24,36.55Z" transform="translate(0 -5.05)"/><path class="cls-22" d="M165.54,32.47c-10-.24-19.91-.72-29.87-.66-11.3.06-22.52-1.3-33.83-.66a11,11,0,0,1-4.66,1c-8.11-.21-16.31.88-24.34-.71-1.25-.61-1.37-1.4-.69-2.32,7.72-.56,15.46-.12,23.13.26,15.06.74,30.14.26,45.19.59,7.53.15,15,1.25,22.5.93C164.43,30.8,165.61,31.17,165.54,32.47Z" transform="translate(0 -5.05)"/><path class="cls-22" d="M232,33.22c0,.69,0,1.37,0,2.07l-4.31.22a3.62,3.62,0,0,1-4.07.1c-3.11-.45-6.17-1.36-9.44-.64a250.92,250.92,0,0,0-27.3-1.35c-3.75,0-7.57,0-10.72-1.86,2.88,0,5.76,0,8.64-.09,1.25,0,3,.77,2.88-1.38,0-.74,3.34-.54,4.62.11,2.9,1.5,5.6,1.31,8.76.55a21.51,21.51,0,0,1,5.95,0c7.37.44,14.57,2.5,22.16,1.24C229.94,32,231,32.84,232,33.22Z" transform="translate(0 -5.05)"/><path class="cls-21" d="M360.47,32.66c12.48-1.51,24.91-.57,37.38-1-.07,2.95-2.43,3.08-4.69,2.93-6.12-.42-12.41,1-18.36-.92-3.41,1.76-7.16-.79-10.66.45C362.46,34.71,361.13,34.26,360.47,32.66Z" transform="translate(0 -5.05)"/><path class="cls-9" d="M358.88,38.27a1.63,1.63,0,0,0,0-.54,9.45,9.45,0,0,1,5.08-.79c9,1,18,.05,27,.3l14.57.42c.59.36.7.79.3,1.27l-5.18-.06c-4,1.49-8.28.87-12.46,1-2.86.09-5.79-.18-8.42,1l-3-.06c-1.21,0-2-.88-3.28-.86-2.05.91-4-.51-5.8-.25s-3.4,1.39-4.43-.77c-.22-.46-1.37.14-2.1.52C359,40.54,360.05,38.27,358.88,38.27Z" transform="translate(0 -5.05)"/><path class="cls-22" d="M419.16,38.22c12.35-2,24.86-1.62,37.35-1.36C444.19,38.92,431.68,38.43,419.16,38.22Z" transform="translate(0 -5.05)"/><path class="cls-22" d="M379.77,40.85c.49-1.63,1.73-2.38,4.22-2.29,5.55.19,11.1.22,16.66.31-.65,1.57-2.13,2.42-4.4,2.38C390.76,41.16,385.23,41.81,379.77,40.85Z" transform="translate(0 -5.05)"/><path class="cls-8" d="M180.69,39.48l3.95.05c.73,2.13,4.29,3.19,4.14,5.64-5.18-1.84-9.87.24-14.72,1,0-1,.05-1.94.08-2.91C176.38,42,177,39.41,180.69,39.48Z" transform="translate(0 -5.05)"/><path class="cls-18" d="M259.4,47.35c-6.41.58-12.67-1-19.1-.6-2.3.16-2.08-1.74-2.62-2.88a13,13,0,0,1,10,.32l11.93,1.18C259.52,46,259.46,46.69,259.4,47.35Z" transform="translate(0 -5.05)"/><path class="cls-18" d="M459.94,47.57c-5.14,1.23-10.18,2-15.54.69-2-.49-4.46-1.08-6.59.59-.68.54-2.81.19-3.27-.87-.54-1.3.95-1.6,2.36-1.65,2.22-.07,4.64-.5,6.62,0C449,47.56,454.48,47.16,459.94,47.57Z" transform="translate(0 -5.05)"/><path class="cls-21" d="M332.81,32.88c5.8-.91,11.59-.66,17.27-1.77,2-.4,4.59.48,7.54,2.27A158.28,158.28,0,0,1,332.81,32.88Z" transform="translate(0 -5.05)"/><path class="cls-21" d="M302.16,31.73c7.94-1.66,15.89.63,25-.76-4.67,3.61-9.11,1.52-13.07,1.66S306,32.9,302.16,31.73Z" transform="translate(0 -5.05)"/><path class="cls-12" d="M72.15,29.09c0,.44,0,.88,0,1.31-1.41,1.91-4,1.66-6.31,1.71-6.14.14-12.11-.91-18.18-1.26-1.15-.37-2.3-.73-2.08-1.87Z" transform="translate(0 -5.05)"/><path class="cls-21" d="M279.78,30.85c6.31-2,12.46.48,18.73.5-6.2,1.81-12.49,1.37-18.79.33-.37-.2-.48-.39-.36-.57A.54.54,0,0,1,279.78,30.85Z" transform="translate(0 -5.05)"/><path class="cls-10" d="M308.58,42.81c-2.83,1.7-5.66,1.41-8.43,1.24-1.08-.06-2.37-.54-2.29-1.44.11-1.38,1.91-1.22,3.07-1.08C303.51,41.82,306,42.37,308.58,42.81Z" transform="translate(0 -5.05)"/><path class="cls-22" d="M405.83,38.93c-.11-.42-.21-.84-.3-1.27a47.31,47.31,0,0,1,10.05.17C408.92,40.93,408.92,40.93,405.83,38.93Z" transform="translate(0 -5.05)"/><path class="cls-21" d="M385.07,30.35l-5.59-.25c-.23-1.82.15-3.85,3.17-3.66S383.63,29,385.07,30.35Z" transform="translate(0 -5.05)"/><path class="cls-8" d="M414.24,43.9c-4.13,1.53-7.25,1.64-16.11.88C404.06,43.64,409.25,44.94,414.24,43.9Z" transform="translate(0 -5.05)"/><path class="cls-7" d="M279.78,30.85a3.32,3.32,0,0,1-.06.83,53.57,53.57,0,0,1-10.59-.15C273.23,28.77,276.53,30.26,279.78,30.85Z" transform="translate(0 -5.05)"/><path class="cls-21" d="M310.81,24c.39.05.79.08,1.18.11,1.06.94,3,0,4,1,0,.59,0,1.19,0,1.77-1.91-.12-2.62,1.59-4.87,1.57C310.33,27,310.66,25.48,310.81,24Z" transform="translate(0 -5.05)"/><path class="cls-10" d="M371.39,44.11c-2.08,1.4-4.26,1.32-7.07.54C366.67,42.53,369.07,43.39,371.39,44.11Z" transform="translate(0 -5.05)"/><path class="cls-7" d="M255.69,30.28c3.22-.34,6.5-1.15,9.89,1.1C261.7,32.06,258.82,30.49,255.69,30.28Z" transform="translate(0 -5.05)"/><path class="cls-8" d="M386,43.73a7,7,0,0,1-6.77,2C380.69,43.75,382.78,43.82,386,43.73Z" transform="translate(0 -5.05)"/><path class="cls-21" d="M378.31,27c-3.41.94-5.19,1.15-7.85-.38C373.38,26.52,375.18,26.08,378.31,27Z" transform="translate(0 -5.05)"/><path class="cls-18" d="M389.63,28c-.83-.12-1.81,0-2.19-.74s.19-1.18,1.13-1.28a13.43,13.43,0,0,1,5.66.41c.41.14,0,.82-.56,1.13C392.27,27.36,391,28,389.63,28Z" transform="translate(0 -5.05)"/><path class="cls-21" d="M400.07,28.42c-1.4.17-2.11-.09-2.16-.87s.39-1.32,1.43-1.2,2.28.35,2.43,1.19C401.82,27.81,400.48,28.22,400.07,28.42Z" transform="translate(0 -5.05)"/><path class="cls-22" d="M174.08,32.74l-5.21-.1C170.6,30.34,171.2,30.34,174.08,32.74Z" transform="translate(0 -5.05)"/><path class="cls-22" d="M373.44,39.93c.12-.72.67-1.19,1.7-1,1.21.24,1.17,1.18,1.58,1.86C375.21,41.34,374.05,41.19,373.44,39.93Z" transform="translate(0 -5.05)"/><path class="cls-8" d="M395.89,44.57a11,11,0,0,1-6.31.37C391.3,43.68,393.06,44.29,395.89,44.57Z" transform="translate(0 -5.05)"/><path class="cls-21" d="M389.63,28c1.13-1.15,2.53-1.07,4-.48C392.42,28,391.36,29.48,389.63,28Z" transform="translate(0 -5.05)"/><path class="cls-22" d="M45.6,29l1.6,1.19c-1.34,1.51-2.83,1.82-4.51.26,0-.49,0-1,.05-1.47Z" transform="translate(0 -5.05)"/><path class="cls-8" d="M465.16,39.37c.27-.16.53-.47.81-.47.72,0,1,.4.7.83a1.27,1.27,0,0,1-1,.28C465.46,40,465.33,39.6,465.16,39.37Z" transform="translate(0 -5.05)"/><path class="cls-22" d="M405.66,32.68H400.4a11.13,11.13,0,0,1,5.27-.9c.45.21.6.41.44.61A.56.56,0,0,1,405.66,32.68Z" transform="translate(0 -5.05)"/><path class="cls-21" d="M415.09,31.22c.26.17.73.33.75.52.07.54-.49.77-1.15.62a.7.7,0,0,1-.44-.69C414.3,31.49,414.79,31.37,415.09,31.22Z" transform="translate(0 -5.05)"/><path class="cls-22" d="M450.49,39.51l1,.38a3.12,3.12,0,0,1-1,.36,3.28,3.28,0,0,1-1-.34C449.81,39.79,450.14,39.65,450.49,39.51Z" transform="translate(0 -5.05)"/><path class="cls-22" d="M446.35,40a3.58,3.58,0,0,1-1.05.31,3.09,3.09,0,0,1-1-.38,3.53,3.53,0,0,1,1.07-.31A2.86,2.86,0,0,1,446.35,40Z" transform="translate(0 -5.05)"/><path class="cls-22" d="M408.34,31.74c1,.15,2.74-.58,2.84.63,0,.57-1.8.29-2.81.34-.44-.2-.59-.42-.46-.64S408.19,31.74,408.34,31.74Z" transform="translate(0 -5.05)"/><path class="cls-21" d="M408.34,31.74l0,1-2.71,0c0-.3,0-.6,0-.9Z" transform="translate(0 -5.05)"/><path class="cls-8" d="M190.12,40.39c0,.33.1.65.16,1C189.19,41.13,189.05,40.81,190.12,40.39Z" transform="translate(0 -5.05)"/><path class="cls-18" d="M202.7,60.29c5.81-.74,10.07-1.1,14.11.8C212.53,61.45,208.23,62.22,202.7,60.29Z" transform="translate(0 -5.05)"/><path class="cls-10" d="M175.26,59.67c3.73-2,7.43-3.05,11.1,0C182.67,60.24,179,59.82,175.26,59.67Z" transform="translate(0 -5.05)"/><path class="cls-10" d="M170,56.52c1.75.81,4.28,1.08,4.18,3.16-.49.1-1,.18-1.47.27-1.58-.39-3.47-.17-4.68-1.24C168.16,57.76,169,57.14,170,56.52Z" transform="translate(0 -5.05)"/><path class="cls-10" d="M187.21,59.7c3.06-1.5,3.39-1.44,4.21.88A9.07,9.07,0,0,1,187.21,59.7Z" transform="translate(0 -5.05)"/><path class="cls-9" d="M308,54.74a14.24,14.24,0,0,1-8.52.7c-2.39-.6-4.26.12-6.34.42-2.09-1.39-5.14-.64-7.95-1.83,2.86-1.9,5.68-1.87,8.93-1.23,3.62.72,7.21.66,9.78-1.82,2-.16,3,1,4.49,1.53C311.36,53.61,308.42,54,308,54.74Z" transform="translate(0 -5.05)"/><path class="cls-21" d="M357.67,56a2,2,0,0,1-1.53-1.88c4.59-.56,9.2-1.53,14,.23C366.6,58.51,361.89,56.23,357.67,56Z" transform="translate(0 -5.05)"/><path class="cls-18" d="M274.43,49.85c-.82.86-1,2.13-3.09,2.14-.92,0-2.57-.31-2.43.9s-.13,1.89-1.92,1.8c-.94,0-1.61-.49-1.71-1.21-.15-.94-.36-1.92,1-2.55s2.58-1.16,3.86-1.74A5.81,5.81,0,0,1,274.43,49.85Z" transform="translate(0 -5.05)"/><path class="cls-12" d="M325.31,51.91a10.91,10.91,0,0,1,0,1.4,2.14,2.14,0,0,1-2.71,2c-1.87-.36-.36-1.49-.2-2.3a12.62,12.62,0,0,0,.11-1.84Z" transform="translate(0 -5.05)"/><path class="cls-10" d="M374.18,54c1.25.12,2.07.52,1.94,1.52a1.38,1.38,0,0,1-1.74,1.05c-1-.19-2.11-.61-2.06-1.56S373.36,54.1,374.18,54Z" transform="translate(0 -5.05)"/><path class="cls-9" d="M315.38,52.81c.64,1.48.91,2.82-2.1,3C313.3,54.53,313.1,53.22,315.38,52.81Z" transform="translate(0 -5.05)"/><path class="cls-12" d="M336.19,52.1c-.13,1.33-1.19,1.82-2.94,1.69a2.32,2.32,0,0,1,.2-.93c.39-.28.8-.56,1.19-.85C335.15,52,335.67,52.08,336.19,52.1Z" transform="translate(0 -5.05)"/><path class="cls-9" d="M313,50.92c-.05.11-.06.29-.18.32-.36.11-.56,0-.49-.37,0-.1.24-.17.37-.24Z" transform="translate(0 -5.05)"/><path class="cls-10" d="M334.64,52l-1.19.85C333.45,52.29,333.88,52,334.64,52Z" transform="translate(0 -5.05)"/><path class="cls-12" d="M328.81,57.34c0,.23-.06.46-.09.68,0-.22,0-.44,0-.68Z" transform="translate(0 -5.05)"/><path class="cls-8" d="M85.93,56.62c.42-.57.81-1.14,1.23-1.7l26.56.38c2.19.16,4.39.42,6.59.44,14.83.17,29.62.87,44.42,1.76,1.39.08,2.61.25,3.34,1.21-11.28.29-22.5.34-33.82-.45-12.52-.88-25.19-.91-37.79-1C92.89,57.2,89.44,56.77,85.93,56.62Z" transform="translate(0 -5.05)"/><path class="cls-9" d="M44.14,54.06c.17.06.45.1.49.18.1.3-.17.45-.68.37-.12,0-.29-.24-.25-.31S44,54.14,44.14,54.06Z" transform="translate(0 -5.05)"/><path class="cls-14" d="M60.18,17.52l1.25.16a2.92,2.92,0,0,1-.85.28,15.36,15.36,0,0,1-1.64-.22Z" transform="translate(0 -5.05)"/><path class="cls-18" d="M112.45,42.37a1.57,1.57,0,0,0,.7.33c.19.49.39,1,.59,1.47a3.55,3.55,0,0,1-3.87.26c-4.32-.34-8.59.83-13,0-1.82-.34-1.93-1-1.59-2l2.4-.21C102.63,41.81,107.54,42.39,112.45,42.37Z" transform="translate(0 -5.05)"/><path class="cls-13" d="M64,43.32c-.51-.93-.07-1.55,1.32-1.62s2.64,0,4,0c1.12.44,1.1.92.08,1.42Z" transform="translate(0 -5.05)"/><path class="cls-7" d="M69.36,43.12c0-.47,0-.95-.08-1.42a5.18,5.18,0,0,1,4.57.58C72.7,43.53,71,43.25,69.36,43.12Z" transform="translate(0 -5.05)"/><path class="cls-22" d="M180.73,49.06l-2.88-.15c.29-.7.5-1.59,1.91-1.33C180.65,47.74,180.72,48.46,180.73,49.06Z" transform="translate(0 -5.05)"/><path class="cls-22" d="M25.42,76c.09-.15.19-.41.24-.41.46,0,.35.19-.29.37Z" transform="translate(0 -5.05)"/><path class="cls-12" d="M318.53,53.34a1,1,0,0,1,1.24.72c.23.66-.06,1.21-1,1.44a1,1,0,0,1-1.29-.7C317.3,54.18,317.45,53.6,318.53,53.34Z" transform="translate(0 -5.05)"/><path class="cls-12" d="M333.28,55.75a7.47,7.47,0,0,1,1.25,0c.63.11,1.75-.35,1.68.62a3.23,3.23,0,0,1-1.62.21c-.5-.11-.85-.57-1.29-.87Z" transform="translate(0 -5.05)"/><path class="cls-8" d="M444,54.85c-.41-.17-.9-.37-1.4-.56.34-.15.7-.43,1-.4a7.58,7.58,0,0,1,1.57.46Z" transform="translate(0 -5.05)"/><path class="cls-12" d="M145.89,42.89l6.76.19c0,1.53-1.09,2.22-3.16,2.21C147.27,45.27,145.74,44.74,145.89,42.89Z" transform="translate(0 -5.05)"/><path class="cls-21" d="M34.2,39.76c.78-1.19,5.7,1.55,4-2.21-.34-.78,1.45-1,2.54-.85,1.69.2,3.35.59,5.06.79s3.14-1.15,5.36-.57c.42,1.68-2.09,2.94-1.77,4.63-3.13.94-7-.61-9.74,1.64l-.44,0c.31-1.2-.56-1.76-2.09-1.88S34.61,40.82,34.2,39.76Z" transform="translate(0 -5.05)"/><path class="cls-12" d="M467.4,56.08a2.34,2.34,0,0,0,0,.79,2.17,2.17,0,0,1-3.24-.23A6.1,6.1,0,0,1,467.4,56.08Z" transform="translate(0 -5.05)"/><path class="cls-7" d="M333.41,88.59l4.06-.17c-.08.62-.15,1.23-.22,1.84l-3.78,0c-.35-.15-.51-.32-.45-.52s.15-.32.26-.32A1.49,1.49,0,0,0,333.41,88.59Z" transform="translate(0 -5.05)"/><path class="cls-8" d="M127.18,42.38c.32-.56.76-.66,1.34-.18Z" transform="translate(0 -5.05)"/><path class="cls-10" d="M330.69,89.41l-1.34.19C329.6,88.85,330,88.57,330.69,89.41Z" transform="translate(0 -5.05)"/><path class="cls-8" d="M99,38.51c0,.63,0,1.25,0,1.88-1.17-.09-2.77.3-3.24-.72s1-1,1.93-1.19Z" transform="translate(0 -5.05)"/><path class="cls-8" d="M118,38.44c-1.46,1.5-3.71.83-5.63,1C113.85,37.93,116.07,38.55,118,38.44Z" transform="translate(0 -5.05)"/><path class="cls-8" d="M123.44,39.43c-.9-.13-2.93.48-1.52-1.19Z" transform="translate(0 -5.05)"/><path class="cls-8" d="M205.12,42.32a2,2,0,0,1-1.64-1Z" transform="translate(0 -5.05)"/><path class="cls-8" d="M90.94,39.48c-3.07,1.56-5,.65-7.4-.63C86.46,38.41,88.71,38,90.94,39.48Z" transform="translate(0 -5.05)"/><path class="cls-22" d="M84.39,33.71l8,0A7.58,7.58,0,0,1,84.39,33.71Z" transform="translate(0 -5.05)"/><path class="cls-21" d="M28.56,37.48c.27-.16.54-.47.8-.46.71,0,1,.38.75.83a1.32,1.32,0,0,1-1,.26C28.87,38.06,28.74,37.71,28.56,37.48Z" transform="translate(0 -5.05)"/><path class="cls-8" d="M80.41,38.75c.5.16.62.43.25.68a4.52,4.52,0,0,1-1,.38c-.09-.24-.35-.57-.22-.72S80.08,38.86,80.41,38.75Z" transform="translate(0 -5.05)"/></g></g></g></svg>
