<svg xmlns="http://www.w3.org/2000/svg" id="Calque_1" x="0" y="0" preserveAspectRatio="none" version="1.1" viewBox="0 0 514.7 92" xml:space="preserve"><defs/><style>.st0{fill-rule:evenodd;clip-rule:evenodd;fill:#a1e5d5}</style><g id="A"><path d="M514.4 70.3c-2.4-3.3-2.8-7.9-9.8-8.8-2.4-.3-5.3-.8-6.3-3.1 2.9-1.9 7.9-1.6 9.5-5.1-2.4-1.1-5.5-1.2-8-2.1-1.6-.5-3.7-1.7-2-2.7 2-1.1 1.8-1.5-.1-2-2.6-.7-4.8-1.6-5.7-3.7-.9-2.1 0-2.9 3.2-2.5 3.2.4 6.2 1.5 10 1.4-1.4-1.4-2.2-2.6-1.7-3.9 1.2-2.8-.3-4.6-3.6-6-2.1-.9-3.2-2.6-2.7-4.1.6-1.8.9-2.6-2.2-2.6-2.9 0-2.7-1.4-2.9-3-.2-1.6 2.2-1.8 2.6-3.2-3.1-.6-6.5-.6-9.4-1.8h.1c.9-.9.8-1.4.2-1.6.5-.2 1.3-.2 2.1-.2 3.3.3 6.7.5 10 .3 1.5-.1 3.5 0 3.7-1.5.1-1.5-1.8-1.6-3.4-1.7-5.5-.3-11-1.2-16.5-1.8-25.4-2.7-51-3.8-76.5-3.5-13.4.1-26.7.1-40.1 0-23.9-.1-47.9-.3-72-.4-13.4 0-26.7.3-40.1.2-25-.2-49.8-.7-74.8-.9-19.8-.1-39.6 0-59.5 0-1.3 0-2.7.1-3.8-.6-2.8-1.9-2.7-1.9-3.6-1.9-2-.1-4-.1-6-.3-17.9-1.1-36-.1-54-1.8C44.3.7 37.4.2 30.5.1 23 0 15.4-.5 8.3 2.3l18.4 1.5c.1.4.1.9.1 1.3C19.6 4.5 13 6 6.2 7.9c3.3.4 4.8 2.8 8 2.9l29.7 2.5.3 1.8-14.9-.4c-6-1.1-11.8-.4-18.4.2 2.2 1.4 3.8.9 5.3 1.1 1.2.2 1.1.8.9 1.4H17l-3.6-.2c-5-.2-5.1-.2-3.8 3v.1c-.5.6-1 1.1-1.5 1.6l-5 1c-1.1-.5-2.8-.8-3.1.3-.3 1.1 1.4 1.2 2.7 1 .2 0 .4-.1.6-.2v-.1c3.8-.1 7.2 1.3 10.9 1.5h.1c.3.3.8.4 1.2.2 1.7 1.3 4 1 6.2 1.2 10.1.7 20.4-.1 30.4 1.4.1.4.2 1 .4 1.4h.1-.2l-6.8-.1c-1.2-1-2.9-1-4 .1h-.1l-14.5 1c-1.9-.8-3.8-1.2-4.7.6-.3.6 2 .3 2.1 1.3-1.5.4-3 .5-4.6.2-1.8-.4-3.4-.4-4.6.9 1.7 1.1 4.1-.4 6.1 1.1-3.8.5-2.1 2.9-3.4 4.1-3 2.8-1.1 3.9 2.3 4.8 1.1.5 2.4.7 3.6.6.3.9-.4 1.4-1 2-2.5 2.6-2.5 2.7 1 4.5l2.1 1.1.1.1h-.1c-.1.6-.1 1.2-.2 1.9v.2c-4.5 3-4.6 3-.3 6 .7.4 1.3 1.1 1.5 1.9.4 1.4 2.2 1.2 3.8 1 8.9 1.4 18.2 1.3 27.2 2.1 1.3.5 2.6.5 3.9.3 10.6 2 21.5 2.7 32.2 4.2 18.7 2.7 37.6 4 56.5 4.1 37.2.1 74.4 1.1 111.6 2 16.5.4 33 .9 49.5.5.8.2 1.7.2 2.5 0 3.6.5 7.2.6 10.9.2 0 0-.1 0-.1-.1h.1c.8.3 1.6.4 2.4.1h.1s-.1 0-.1.1l28.6.6c3.5.2 7.1.2 10.6-.2 1.2.3 2.5.4 3.7.1h.1v.1c7.1.6 14.2.6 21.3.2v-.1.1c2.8.2 5.7.6 8.6.6 14 .1 28 .1 42 .2l34.6.2c.8.2 1.7.2 2.6-.1 4.7.4 9.3.5 14 .4 3.4-.1 7.1.3 8.3-3.2.3-1 2.4-1.4 3.9-1.6 1.8-.2 3.5-.4 5.3-.5 2.5-.2 4.1-2 3.4-2.9zM226.2 37.5l-2.4-.6c1-.3 1.9-.1 2.4.6zm228.1-22.9h-.1.1zm2.3.5v.2c-.1 0-.1-.1-.2-.1-.2 0-.3-.1-.5-.1h.7zm-1.1-.1c-.1 0-.1 0-.2-.1l.2.1zm20.6.9zm-60.3 53.5c-.2.1-.5.2-.8.3l-.2-.2c.3.1.7 0 1-.1zm61.7-52.8c-.1 0-.2.1-.3.1v-.2c.1 0 .3.1.4.1 0-.1 0-.1-.1 0zM16.6 21.1c-.2.2-.4.3-.6.5.1-.3.3-.4.6-.5zM27 31zm181.9 34.9c-.3-.5-.5-1-.8-1.5.9.4 1.9.8 2.9 1.2-.5.3-1.2.5-2.1.3z" class="st0"/><g opacity=".5"><path d="M499.9 79.5c-4.4-.5-8.8-1.3-13.1-1.1-17.3 1-34.6.2-51.9.7-39.7 1-79.4-.4-119-1.9-24.2-.9-48.5-2.1-72.6-4-17.3-1.3-34.6-1.7-51.9-2.6.9-1.4 2.6-.9 4.1-.9h13.2c-3.6-1-7.2-1.1-10.9-1.7-3.7-.6-6.9 1.5-10.6.5-1.1-.3-.7 1.2-.7 1.9-5.4-1-11-.7-16.5-.7-6.4-.5-12.8-1.4-19.1-1.2-7.1.1-14.2 0-21.3-.1-27.6-.4-55.1-.9-82.6-1.3-7.9 0-15.8-.7-23.7-.2-3.1-2.6-4-2.7-7.7-1h.1c-2.6-.2-5.2.8-6.9 2.8 4.1-1 3.2 2.6 5.7 2 3.7-.8 5.6 1.1 8.2 2h-.1v.2c-.1.9.5 1.8 1.4 1.9v-.1c1.3 1.2 3.8.5 5.3 1.6 2.7 2 4.5.6 6.4-1-1.6-1.1-4-.5-5-1.8l.6-.9h.1c3.5 0 7 .1 10.9-.9-1.1 2.4-1.9 4.3-3 6.8 10.1-1.2 19.7-1.1 27-6.4l.4-.1H67.3c4.2.1 8.2 2.2 12.7.6 1.9-.5 4-.2 5.6 1 3.2 2.6 4.8.9 6.5-1l4-.1-.1-.1s.1 0 .1.1c4.6.8 9.2 1.1 13.9 1 2.6-.1 3.6-.9 3.6-2.6 18.7.2 37.4.8 56.1.4 9.6 1.8 19.4 1.2 29.1 1.8 15.1 1.1 30.2 1.5 45.3 2.5 21.9 1.5 43.8 2.5 65.8 3.4 6.4.3 12.8.2 19.2 1.1l-1.3 2.4-.1.1-4.4.4v-.1c-.5.2-1.4.3-1.4.5 0 .7.9.6 1.5.6l.1.1c1.2.9 2.7 1.2 4.1 1V85l.1.1c3.3 3.5 4.1 3.6 6.7.8 1.4.5 1.8 2.5 4 1.7 1.4-.5-.4-1.7.1-2.5l-.3-.2c.1.1.2.2.3.2 1.7-.2 4.1-1 5.1-.5 4.7 2.4 9.9 1 14.8 1.4 4 .9 7.7-.1 11.4-.9h.1c5.7-.4 10.3 2.2 15.5 3.2 1.3.2 2.4 1.3 3.4 2.2 1.6 1.4 3.2 1.7 4.8.1.8-.8 3.4-.3 2.8-2.1-1.7-1.1-4.2.1-6-1.1 1.9-1.3 4.2-1.7 6.4-1 3.5.9 3-.9 3.2-2.3 1.6 0 2.6-.5 2.7-1.7h-.1 2.7c3.8 2.5.5 5.7 2.1 9.4.4-2.7 2.2-3.4 4.2-4.3 4.7-2.2 9.9-3.1 15-2.4 3.1.4 4.5-.9 4.1-3.1.4 0 1-.1 1.4-.1-.3 2.1.5 3.3 3.9 3.3 7 0 13.8-.4 20.1-2.9h2.7c.2.6.4 1.5 1.4 1.4 8.8-1.1 17.6-.2 26.3-.6 1.4 0 3.1.1 3.2-1.6-4-1-8.5.8-12.2-1.2h-.1.1c7.7-.8 15.1-.1 22.4-.8zM23.4 66.8s0 .1 0 0c0 .1-.1 0 0 0zm310.8 18.8c-.6-.4-1.4-.5-2.1-.8-.1-.2-.2-.3-.3-.3-.4.1-.2-.1 0 0h.1c.3-.1.8.2 1.2.2.4 0 .8 0 1.2-.2 0 .1.1.2.3.3-.3.3-.4.6-.1 1l-.3-.2zm4.5-3.1c-.2.2-.4.4-.5.7l-2.7.1c0-.1.1-.2.1-.4 0-.5-.3-.9-.6-1.3 3 0 5.9.1 8.9.2-1.8.1-3.5.3-5.2.7zm21.8.9l-.1.1c-.1-.2-.2-.4-.5-.7-1.5-.2-2.9-.4-4.4-.6 1.9.1 3.7.2 5.6.3-.1.2 0 .4.1.7-.3-.3-.6-.2-.7.2zM425.9 11.3c-2 1.5-2.3 1.3-4.2-.5-.5-.4-1.1-.5-1.6-.5-4.2 0-8.2-1.1-12.5-.5-3.1.5-6.2.6-9.2.1-3.8-.7-7.8-.6-11.6.3-.2-.2-.4-.4-.5-.6-.1.1-.2.3-.3.4-.1 0-.1.1-.2.2-2.9 1.5-3.3-1.2-5.1-1.5-2.4-.4-2.5 3.3-5.7 1.7-.4-.1-.8-.1-1.2 0-2.8.1-5.7-.7-8.2.7-1.1-.2-2.1-.3-3.2-.3-1 0-2.4.2-2.1 1.3.2.8 1.2.8 2 .9 2.4.1 4.9.2 7.3.3l.3.3c.7.5 1.8.4 2.3-.4 9.4.3 18.8 1.5 28.3.7 1.3.3 2.6.4 3.9.2 4.9-.6 9.6.8 14.5.8 8.2.1 16.4.1 24.6.4 3.7.1 5.6-.7 5.2-3.5-4.1-.5-8.2-1.3-11.8 1.3-1.3.9-3.4.3-5.1.2-.8 0-1.3-.5-.6-.9 3.2-1.4.6-1.6-.8-1.7-1.6-.3-3.1-.4-4.5.6zM128.4 6.4c5.1.9 10.3.5 15.5.7 6 .2 12-.3 18-.2 14.9.3 29.9.9 44.9 1.3 2.9.1 5.7-.1 8.6.7 2.2.5 4.4.5 6.6 0 .9-.2 1.3-.8 1-1.5-.3-.5-1-.8-1.5-.6-2.3.7-4.8.8-7.2.3-6.2-1.4-12.5-1.2-18.9-1.5-11.5-.4-23-.2-34.5-.3-10.9-.1-21.6-1.8-32.5-.9-3-.7-6.2-.2-9.2-.2-7 0-14.1.8-21.2 0-2.4-.4-4.8-.6-7.2-.6-11.6.9-23 1.2-34.5 1.1-1.7 0-3.5 0-4.5 1.7h76.6c-.1 0 0 0 0 0z" class="st0"/><path d="M34.6 14c1.3 1.2 3.2.9 4.9.9 13.8.4 27.5-.7 41.2-1 1.4 0 3 .1 3.7-.8 1.4-1.6 2.4-1.2 4-.2 1.1.6 2.4.9 3.7 1 3.5.1 7.5-.8 10.4-.2 3.3.7 6.7 1.1 10.1 1.2 3.3.1 6.7.1 10 .1-2 1.6-4.9 1.9-7.4 1.6-10.4-1.2-20.9-.5-31.3-.7-13.6-.2-27.2 0-40.7.1-5 0-10 1.1-15.2-.1-4.3-.9-7.4 1.9-11.3 2.6l.7.8c2.8 0 5.2.9 7.7 1.5 3.6.9 7.2 1.2 10.9 1 6-.3 11.4-2.4 17.6-2.1 14 .5 28-.4 42 .4.1 0 .3-.5 1-1.4H63c22.1-.9 44.1-.9 66.1-.9 2.3 0 4.9.8 6.8-1h-.1 2c1.8-1.4 4.6-.5 6.6-1.6.1 0 .1-.1.2-.1.1-.1.1-.1.1-.2 1.3.9 3 1 4.5.4v.1c1.3 1.3 2.9 1.3 4.6.5 6.1-.2 12.4.8 18.5-.6 3.5 1 7 2.4 10.9.9 9.3.9 18.7 1.2 28 .8v-.1c8 1.8 16.5.9 24.7 1.8 3 .3 6 1.1 9.1.5 5.6.5 11.4-.2 17.1.7 2.6.4 6.9.6 8.2-.5 2.6-2.2 4-.5 6.1.2.6-1.3 1.2-2.5 1.8-3.6-4.3.1-8.9-1.2-13 .9-1 .5-2.2.5-3.2 0-6.6-.9-13.3-.2-19.9-.5-1.7-.7-3.4-.4-5.1-.5-4.6-.1-9.2 0-13.6-1.1-.6-.4-1-.3-1.3.2-3.6 1.2-7.1-.3-10.7 0h-.1c-7-1-14.2-.9-21.2-1.3-2.4-.1-4.9-.2-6.9 1.2-3.4-1.5-7.1-2.1-10.8-1.7h-3.9-.1c-1.4-.3-2.9.2-4.1-.8-2.4-2-3.9-.8-5.2.8-3.1-.1-6.3-.5-9.5 0-1.9-1.8-3.5-1.4-5.1.3v0c-8.8-1.4-17.5-3.3-26.7-3.3-4.6 0-9.1.3-13.8 0-10.2-.5-20.5.7-30.6-.7-.4-.1-1 .5-1.6.8h-.3c-4.1-.5-8.2-.7-12.3-.7-15.5.3-31 .1-46.3 1.7-1-.9-3.1-1.9.5-2.4.3 0 .5-.4.8-.6 7-1.2 14.5.1 21.3-2 4.5-.6 8.8 1.7 13.3-.7-4.5-1.9-8.6-1.6-12.7-.3l-4-.3H32V3.6c4.5-1.6 9.9-.2 14.3-1.8-.1-.7-.8-1.2-1.5-1.1-7.1-.4-14.1.8-21.1 1.4-1.2 0-2.4.6-3.2 1.5-4.1.1-8.5-1.2-12.4.7H8c-1.7 2.8-2 5.6-.2 8.5l-4 .8c10.4 1.1 20.6-.4 30.8.4zM22.7 37c2.6.4 5.1 1.2 7.8 1l-.7 1.1V39c-1.2-.2-2.5-.1-3.6.3v.1l-2.8 1.9h-.1l-2.8.1c-.7-.7-1.5-1.4-2.6-.6-.7.6-.8 1.5.8 1.8 1.5.8 3.3 1.2 5 1 12-.2 24-.4 36-.5h.1c1.5.3 3 .5 4.5.6 12.3-.4 24.6 1 37 .6h.1c5.5.6 11.1.2 16.7.4 2 .1 3.5-.3 3.8-1.9 3.2 1.9 6.6-.3 9.5.2 3.3.6 6.3 2.2 10 1.6h.7c1.6-.1 2.4-.7 2.5-1.8.1-1.5-1.4-1.7-3.1-1.9-2.5-.3-3.9 1-5.5 2-1-1.3-.5-2.6-.5-3.9l6.5.3c1.9.6 4.4.8 4.1 3v.6c.1 1 1 1.7 2 1.6 5.1.1 9.9 1.7 15 1.2 1.8-.2 2.9-.6 3.1-1.9 2.8-.3 5.4.6 8 1l.1.1c.2 1.2 1.3 1.8 3 1.8 3.4-.1 6.8-.1 10.2-.2 1 0 1.3-.7 1.6-1.3l-.1-.1h.1c2.6.9 5.2-1.1 7.8-.1 0 0 .1 0 .1.1h-.1c.1 1.1-1.1 2.2 1.9 2.8 9.3 1.5 18.9.2 28.2 1.9 1.5.3 3.1 0 4.6.3 3.1.6 4-.5 4.3-2.4-.1 0-.3 0-.4-.1h.4c4.5.2 8.8 1.3 13.4 1h1.5c1.1 3.2 4.7 2.9 7.9 2.9 11.7 0 23.3.6 34.9 1.9h.1c4.1-.4 7.9.7 11.8.7 13.4.4 26.8-.3 40.1 1.1 1 .1 2-.2 2.7-.9h.1l8.1-.1c2.2 1.1 4.2 2.7 7 .6l.1-.3-.3-.1c3.5-.3 6.9-.2 10.4.1.1 0 .2 0 .2.1 2.3 1.7 4.7 1.7 8.1.2 4-.4 8 .3 12 .3 16-.2 32-.6 48-.9 1.4.3 2.8.2 4.1-.1 8-.2 16.1.5 24-.7h2.7c3.3 1 6.9.9 10.2-.3 6.5-2 13.6-2 20.5-2.6.1 0 .2-.1.2-.2l.7-.3-1-.4c-.4 0-.8 0-1.1-.1h-.3.3c.5-1.1 3.4-.7 3.4-2.7h-9.2l-17-.1c-5.1 0-10.5.8-15.3 0-7.6-1.2-14.9-.7-22.5-.2-3 .2-6.6 1.4-9.4-.8.2-.9-.1-1.3-1.4-1.8-5-1.6-10.3-1.8-15.5-1.9-8.6-.1-17.3.3-26 .6-26.1.7-52.2-.6-78.2-1-16.7-.3-33.4-1.4-50.1-1.5l-11.9-1.2c-2.9-1.3-6.1-1.5-9.1-.6-.6-.5-1.2-.8-1.9-1.2l-3.4-1c-3.4 2.1-7.6-1.3-11 .9h-1.3c-.7 0-1.3.1-2 .2-.7-.1-1.4-.2-2-.5-1.8-.7-3.9-.5-5.4.6-.5.9-1.1.9-1.7.1-.9-.2-1.7-.2-2.6-.1-3 .7-5.5.3-7.4-1.6-.8-.3-1.6-.4-2.5-.2-1.5 1-2.4.5-3-.6-1.1-.3-2.2.1-2.8 1.1.3 1.5-.6 2.8-1.3 4.1h-.1c-.4-.1-.8-.2-1.3-.4.1-2.4-3.4-3.5-4.1-5.6h-3.9c-3-.1-4 1.6-5.4 3-.5-1.2-.8-2.9-2.8-1.4-.5.4-1 .6-1.4.8.3-.2.5-.4.6-.7.8-1.3 0-2.1-1.6-2.6-8.3-1.3-16.6-1.8-25-1.4h-3.5c-3.2.1-6.2-.5-9.3-.7-2.8-.2-6-.5-7.3 2.1-.1 2.1 1.9 2.7 4.2 2.5.7 0 1.3 0 2 .2-.8-.1-1.6-.1-2.5 0h-2.2c-2.2-.2-4.4-.4-6.3.5-.3-.1-.5-.3-.7-.5-2-.9-4.4-.6-6.1.8-.2.2-.3.3-.4.5-.2-.1-.4-.1-.6-.3-4.9 0-9.8-.6-14.8-.1l-1.7.2c-.6-.3-1.1-.6-1.6-1-1.9-.6-3.7-1-5.6-1.2.6-.1 1.2-.3 1.9-.7-2.2-1.5-4.5-1.1-7.4-.6.8.4 1.6.8 2.4 1.1-3.8-.1-7.6.5-11.4 1.2-.6.2-1.3.3-1.9.5-1.1-.3-2.2-.3-3.3 0-1.3 0-2.6-.1-4 0-.8 0-1.2.2-1.4.6-.7.1-1.3.3-2 .6.5-1.8-1.5-2.2-3.4-2.6-2.8-.4-5.6-.5-8.4-.2h-.4c.6-1.1 1.7-2 1.4-3.2-2.2-.6-3.6.8-5.4.6-1.7-.2-3.4-.6-5.1-.8-1.1-.2-2.9.1-2.5.8 1.2 2.6-.9 2.1-2.5 1.9-.6-.2-1.2-.5-1.6-.8-2.7-.4-5.4-1-7.6.4.5-2.3 3.1-2.2 5.6-2.3 3.3-.2 5.7-1.1 4.4-3.7.7.4 1.5.5 2.3.4 1.9-.4 3.8-.8 4.7-2.3 1.2.7 2.3.4 3.3-.5.3.1.5.2.8.3 6.1.3 12 1.4 18.2 1.3 2.2 0 4.6.1 6.1-1.4.2.3.5.5.9.8 8 1.6 16.2.5 24.3.7 1.6 0 3.2-.3 4.7-1 11.3-.6 22.5.7 33.8.7 10-.1 19.9.4 29.9.7.1-1.3-1.1-1.7-2.6-1.6-7.5.3-15-.8-22.5-.9-15-.3-30.1.1-45.2-.6-7.7-.4-15.4-.8-23.1-.3l-26.6-.1H44c-3.7 0-7.5 0-11.2-.2-5.6-.4-11.3.4-16.9-.6l-3.5-.1c-3 2.5-.2 3 2.4 3.5h.6c-.7.2-1.4.5-2 1-1.9 3.8 3.6 2.5 5.2 3.8-2.3 1.4-5.6.6-7.9 2-.5 1.1-3.6.5-3.2 2.3 4.9 1.4 10 1.9 15.2 1.5zm373.1 12.9c8.1-.2 16.8-1.1 25.6-1.8.6 1 3 .9 3.4 1.6.4.6.6 1 .8 1.3-10.3-.4-20.3-.9-29.8-1.1-2.3 0-4.5 0-6.7-.1 2.2 0 4.4.1 6.7.1zm-146.4-4.7c.1.1.1.2.1.3l-.1.1v-.4zm-16.1 2.2h.7-.7zm-77.3-11c3.7.2 7.4-.1 11.1.5-.4 0-.8-.1-1.2-.1-3-.2-6.1-.5-8.9.7-1-1.1-2.3-1.1-3.8-.3-.3.2-.5.4-.8.6l-2.7-.1c1.8-1.2 4-1.4 6.3-1.3zm-14.8-.3c.5.1.4.4.2.7-.7-.3-1.4-.5-2.2-.3.5-.4 1.1-.7 2-.4zm-11.5 3.3c.1 0 .1 0 .2-.1.4 1.3-1.8.5-2.7.8-.6.2-1.2.3-1.9.2 1.1 0 1.9-.3 2.2-1.1.8.4 1.5.4 2.2.2zm-67.1-1.5c.1.1.1.1 0 0 .1.1 0 0 0 0zm51.6 1.4c.4.4 1.2.7 1.2 1.2-.7-.4-1.4-.7-2.1-1 .3 0 .6-.1.9-.2zm-73.3-1.4c.1-.1.2-.2.3-.2 0 .1.1.2.1.3-.1-.1-.3-.1-.4-.1H40c.2-.4.3-.7.3-1.1.2.3.2.6.1 1h.5zM421.6 18.9c.4.4 1.1.4 1.5 0 2.8-.2 5.6.3 8.6-.6-.6-.5-1-1.1-1.5-1.1-13.9-.6-27.9-.2-41.8-.2.1 1.8 2 1.8 3.8 1.8l24.3.2 5.1-.1zM447.1 19.6c3.9.7 7.4 2.4 11.5 2 3.9-.5 7.9-.9 11.8-1 3.5 0 7.5 1 10.6-1.5-11.3.3-22.5-1.5-33.7-1.2-1.1.5-.8 1.1-.2 1.7zM483.8 26.5l-24.8-.1c3.7 1.8 8.2 1.2 12.2 2.3-4.7 1.9 1.6 3.5-.6 5.3 2.9 0 4.6-.7 5.9-1.8-1.3-.2-3.3.4-3.3-1.6 4.3.1 7.2-1.9 10.8-3-.1-.4-.2-.7-.2-1.1zM338 17.8s0 .1 0 0c0 .1 0 .1 0 0-2.3-1.1-4.8-.8-7.3-.7-.9.2-1.9.1-2.7-.3-3.5 0-6.9-.1-10.4 0-2.1 0-4.4-.5-6 1 .2.3.3.6.5.9-.2 1.5-.5 3 .3 4.5 2.2 0 3-1.7 4.9-1.6v-.1l.1.1c3.1.3 6.1-.3 9.1-.2 8.2.3 8.2.4 12.3-2.6 2.5 2.2 5.3-.1 8 .1 6.7.6 13.5.9 20.3.7 2.3-.1 4.4-.2 5.6-1.9-7.4-.3-14.9-.1-22.3-.3-4.2-.1-8.5-1.4-12.4.4zm-17.9 1.5c-.7 0-1.3 0-2 .1-.3 0-.6.1-.8.1l-.2.2c-.2-.1-.3-.2-.5-.3.5 0 1-.1 1.5-.1h2c1.4 0 2.7-.1 4-.1-1.2.3-2.6.1-4 .1zM485.1 24.2c-1.3-.8-3.1-.6-4.8-.7-6.4-.1-12.9.4-19.3-.4-1.3-.2-3.1 0-3 1.2.1 1.2 1.8 1.2 3.1 1.2 7.3 0 14.7 0 22-.1.8 0 1.9 0 2-1.2zM309.8 17.8c-2.9-1.7-6.4-1.5-9.8-1.8-1 .6-.2 2.7-3.2 1.8-1-.3-2.5.1-3.7.1l-3.2-.1c1.1 2.4 4 2.8 6.8 3 2.6.2 5.3-.2 7.9-.1 2.2.3 4.4-.9 5.2-2.9zM453.7 88c9.5 1.6 22.5 1.2 26.5-.5-8.9-.9-17.8-.7-26.5.5zM487.8 9.8c-8.2-1.2-16.6-2.3-25.1-1.6 8.2 1.5 16.4 2.7 25.1 1.6zM308 83.7c-3.2-1-5.7-2.8-9.6-2.5-5 .3-5.3.2-5.3 5 4.2-4.4 9.9-1.5 14.9-2.5zM429.4 23.7s.1 0 0 0c1.8 0 3.6.5 5.3-.6-1.8-1-3.6-.6-5.3-.6l-13.1-1c-1.9.5-3.9 2.1-5.4-.3-1.5-2.4-3-.7-4.6-.2 1.5 1.8 3.8 2.7 6.1 2.5 2.6-.1 5.3.2 8 .3l9-.1zM49.4 61.1s0-.1 0 0c0-.1 0-.1 0 0 2.2 1.7 5.2 2.3 7.9 1.5 2.9-.8 5.6-.3 8.5.3 1.6.3 3.2 1.1 5.2.6 4.7-1.1 9.5-1.3 14.3-.6 5.6.7 11.3 1 17 .9 3.1 0 7.3.5 8.9-2.6-3.2.5-5.1-1.9-8-1.9-8.5-.1-17.1-.3-25.6-.1-4.4.2-8.8.2-13.2-.2-5.1-.6-9.8-1-14.7.2-6.2-.8-11.8 1.6-19.2 1.2 4.2 2.1 7.6 2 11 1.6h.1c1.2 1.3 2.1.8 2.9-.3h-.1c1.5-.5 3.3-.7 5-.6zM235.7 2.2c16.7.6 33.4 1.4 50 1.8 27.1.8 54.3 1.4 81.5 2 10.2.2 20.4.3 30.7.4 10.4.1 20.8-.1 32.5.8-2.6-1-5.4-1.6-8.2-1.8-13.8-.4-27.6-.9-41.4-1.3-15.6-.4-31.2-.6-46.8-1L237.1.7c-6.6-.2-13.2-.4-19.8-.5-.2 0-.5.4-1.1 1.1 6.7.3 12.9 1.5 19.5.9zM420.8 90.7c4.9 1.8 9.2.9 14.2-1.3-5.8-1.4-9.8 1.3-14.2 1.3z" class="st0"/><path d="M17.2 52.5c10.2 2.9 20.8 2.9 31.5 2.1 2-.1 4-.1 6-.1 11.4-.3 22.9.2 34.3 1.3 5.8.5 11.5-1.2 17.3-.1 2.8.7 5.6 1 8.5.9 10.7-.9 21.4-.2 32 0 8.6.1 17.3 1.1 25.9.4 5.2 1.8 10.9.9 16.3 1.5 11.2 1.2 22.5.9 33.8 1.4 7 .3 10.4.5 15.8 2.7 0 0 .1-.1.2-.1 4.9-1.6 9.6-.3 14.1.8 1.9.4 3.8 1.1 5.6 1 6.5-.6 12.8.5 19.2.5 18.4.1 36.8 1.5 55.2 2.1 16.4.6 32.8.9 49.2 1.2 1.2.4.8 2.1 3.4 1.5 4.1-1.1 4.2-.9 11 .1 1.8-1.8 3.4.6 5.7.1 10.4-2.5 21.2-.8 31.5-1.5-.9-.6-3.8.6-4.1-1.5l7.2-.5c1.5 1 3 2.1 4.2-.2 3.2 0 6.5.1 9.8-.2 10.3-1.1 20.6-.8 30.9-.8 4.6 0 9.2 0 13.6-1.3 3.5 0 7.2.8 10.8-1.4-4.1-.3-7.4-.9-10.7-.2v0c-4.2 0-8.4.1-12.6.1-4.8 0-9.7.6-14.1-1.3h-.1.1c.2-.4.4-1.2.7-1.3 6.1-.5 12.5-2 18.3-1.1 5.8.8 11-.9 16.5.1-.1-1.8-2.2-1.2-2.9-2.1-.8-1.1 2.1-1.3.7-2.6-4.6 2.8-10.9-.1-15.8 2.5-5.5-1.5-10.5 1.6-16.2.8-5.4-.8-11 .6-16.4 1.1h-.1c-3.7-.3-7.5-.1-11.2.5-3.2-1-6.6-.5-9.9-.5-1.5 0-2.5.4-2.8 1.6h-2.5v.1l-.1-.1-1.3-.2v-.1c-11.7-.9-23.5-.5-35.2-.2-.4.1-.8.2-1.2.4h-2.5v-.1c-2.3.1-4.7-.9-6.8.5l.1.1h-.2c-1.7-.5-3.5-.6-5.3-.3h.1c-2.3-.8-4.6-1-6.7.3l.1.1h-.1c-7.4-2-15.2-1.1-22.8-1.1-1.3-.6-2.7-.7-4-.1h-4.1c-.8-.5-1.9-.7-2.8-.3-3-.5-6.1-.6-9.2-.4-1.8-.4-3.7-.4-5.5-.2h-.1c-3-.6-6.1-.8-9.2-.7h-.1c-1.3-.3-2.7-.3-4 0h-.1c-1.3-.1-2.6-.4-3.9-.4-17.7-.8-35.5-1.5-53.2-2.5-17.5-1-34.9-2.3-52.4-3v-.1c-8.5-1.5-17.1-1.2-25.7-1.3l-.1-.1c-1.5-.5-3-.7-4.5-.5-7.1-.2-14.1-.6-21.2-.7-10.1-.2-20.3-1-30.4-.4l-25.4-1c-3.3-.6-6.6-.7-9.9-.4-.7 0-1.4 0-2.2.2l-20-.8h-.1c-1.6-.7-3.5-.7-5.1 0H34.6c-2.2-.7-4.4-.2-6.5-.1l-10.6-.4c-1.4-.3-3.4-.8-3.5.8-.1 1.1 1.8 1.5 3.4 1.3l5.3.1c.3 1-.4 1.6-1.4 2.2h-.1c-1.3-.3-2.7-.3-4 0-3.1-.3-6.3-1.4-9.6.3 3 1.8 6.3 1.7 9.6 1.6zM441 66.1zm.7-4.7c.3-.2.5-.4.7-.7v-.1c.8.2 1.7.4 2.6.4-1.1.2-2.2.3-3.3.4zm6.5-.6c.3-.1.6-.2 1-.3v.3h-1zM491.9 15c-3.5-2-7.4-2.4-13.1-1.4 4.2 1.2 8.7 1.6 13.1 1.4zM471.8 37.2c-2.1.2-1.8 1.5-1.9 2.6 3-.6 6.1-.9 9.2-1 .3-.6.9-1.5 0-1.6-2.4-.2-4.9-.2-7.3 0zM444.2 88.9c-2.2-.1-4.3 0-6.5 0 .1.4.1.8.2 1.2 4.4.4 8.8-.1 13.1-1.3-3.2-1.2-4.8.2-6.8.1zM303.5 86.1c3.2 1.2 6.8 1.2 10 0-3.2-1.3-6.8-1.3-10 0zM262.5 8.3c-2.9.3-5.2-1.2-8.5-.6-3.2.7-6.9-1.7-10 .7-2.8-2.4-7.2-.3-10.5-2.1-1.8-.9-5.1-.1-7.6.4h-.1c-.7.2-1.1.9-.9 1.6.1.6.4 1.5 1.5 1.2 4.2-.9 8.2.8 12.4.6 5.9-.4 11.9-.2 17.8.6 3 .4 6.6.9 9.7-.6h2.6c7.4 1.8 15.3.9 22.9 1.5 10.1.8 20.4.3 30.6.3 2.4 0 4.8.1 7.2.1 7.8-.1 15.8 1.5 23.6-.3.6.9 1.7 1.2 2.7.8 1.2-.6.1-1.5-.5-2-1-.8-2.3-.6-3.6-.4L322.7 9c-1.5-.2-3.3-1-4.5-.6-4.7 1.4-9.3 1-14.2.6-11.2-.7-22.5-.8-33.8-1.1-2.5 0-5.1 0-7.7.4zM449.7 24.3c1.9.8 4.1.6 5.9-.5-1.9-1-4.1-.8-5.9.5zM24.7 60.5c.1.2.7.4 1.1.4.6 0 1.4-.2 1.3-.7-.1-.5-.8-.7-1.5-.7-.6.1-1.1.4-.9 1zM420.8 27.1c.9.4 1.9.1 2.5-.7-.8-.6-1.9-1-2.9-1-1 .7-.6 1.3.4 1.7zM432.5 26.4l-4.1.1c2.5 2.2 2.6 2.2 4.1-.1zM485.6 19.2c-.3.5.2.8.9 1 .7.2 1.2.1 1.5-.4.1-.7-.6-.9-1.2-.9-.4 0-1.1.1-1.2.3zM442.8 24.4c.1-.5.1-1.1.2-1.6-.9-.1-1.8-.1-2.6-.2-.7.7-.9 1.3.5 1.7l1.9.1zM384.2 17.7l-2.5.2c0 .6.1 1.4 1 1.4 1.4 0 1.3-.9 1.5-1.6zM115.4 60.6c-1.9-.8-3.3-.6-4.4.4 1.4 0 2.8.3 4.4-.4zM111 61.1s0-.1 0 0c0-.1 0-.1 0 0zM385.2 91c-.5.2-.4.5.2.5.2 0 .4-.1.5-.1 0-.1 0-.3-.1-.3-.2-.1-.4-.1-.6-.1zM300.9 85.3c-.5.2-.4.4.1.5.2 0 .4-.1.5-.1 0-.1 0-.3-.1-.3-.1-.1-.3-.1-.5-.1zM439 26.5c-.9 0-1.7-.1-2.6-.1.1.2.3.4.5.6.7.4 1.6.2 2.1-.5zM427 26.5h-1.3c.4.5.8.6 1.3 0zM361.7 27.4c.7 1.6 2 2 3.7 1.5 3.5-1.2 7.2 1.3 10.7-.4 6 1.9 12.2.5 18.4.9 2.3.1 4.6 0 4.7-2.9-12.6.3-25-.6-37.5.9zM457.8 31.6c-12.5-.3-25-.6-37.4 1.4 12.5.1 25 .6 37.4-1.4zM439.1 43.6c2.1-1.7 4.6-1.1 6.6-.6 5.4 1.3 10.4.5 15.5-.7-5.5-.4-10.9 0-16.4-1.2-2-.5-4.4-.1-6.6 0-1.4 0-2.9.3-2.4 1.7.4.9 2.6 1.3 3.3.8zM334.1 27.6c8.2.8 16.5 1 24.8.5-3-1.8-5.5-2.7-7.5-2.3-5.8 1.1-11.5.9-17.3 1.8zM315.3 27.3c4-.1 8.4 2 13.1-1.7-9.1 1.4-17.1-.9-25 .8 3.8 1.2 8 1.1 11.9.9zM299.1 37.3c-.1.9 1.2 1.4 2.3 1.4 2.8.2 5.6.5 8.4-1.2-2.6-.4-5.1-1-7.6-1.3-1.2-.1-3-.3-3.1 1.1zM406.8 32.4l-14.6-.4c-9-.2-18 .7-27-.3-1.7-.2-3.5.1-5.1.8-2.2-1.3-4.8-1.3-7.5-1.3-4.8 0-9.7.1-14.6.1-11.9 0-23.7-1.7-35.6-.7h-.1c-5.2-1.1-10.5-1.5-15.8-1.4-7.8 0-15.6 0-23.4-.5-10-.6-20-.5-30-.7-1-.4-2.1-1.2-2.8-1-7.6 1.3-14.8-.8-22.2-1.2-2-.3-4-.3-6 0-3.2.8-5.9 1-8.8-.5-1.3-.7-4.6-.8-4.6-.1.1 2.1-1.6 1.4-2.9 1.4-2.9.1-5.8.1-8.6.1 3.1 1.9 7 1.9 10.7 1.9 9.1 0 18.2.4 27.3 1.4 3.3-.7 6.3.2 9.4.6 1.2.8 2.9.8 4.1-.1l4.3-.2c12.9 1.2 25.8 1.5 38.7 2.2 8.1.5 16.3.5 24.3 1 2.3.3 4.5-.5 6.2-2 2.2 1.3 3.9 2.9 7.2 2.8 5.1-.1 10.3.7 15.2.1 4.9-.6 9.8.6 14.6-.7 2.2-.5 4.4-.5 6.5 0 4.8 1 9.4.3 14-.5 1.2 0 .1 2.3 2.3 1.2.7-.4 1.9-1 2.1-.5 1 2.2 2.6 1 4.4.8 1.8-.3 3.7 1.1 5.8.3.6 1.2 1.7 1.4 3.2.8h.1l3 .1c5.4 1 11 .3 16.4.4 2.3 0 3.8-.8 4.4-2.4l5.2.1c3.1 2 3.1 2 9.8-1.1-2.9-.8-6.3-.8-9.6-.5zM380.7 24.8l5.6.2c-1.4-1.4.6-3.7-2.4-3.9s-3.4 1.9-3.2 3.7zM399.4 39.5c8.9.8 12 .6 16.1-.9-5 1-10.2-.3-16.1.9zM270.4 26.2c3.5.4 7.1.4 10.6.1 6.3 1 12.6 1.5 18.8-.3-6.3 0-12.4-2.5-18.7-.5-3.3-.5-6.6-2-10.7.7zM365.6 39.4c2.8.8 5 .9 7.1-.5-2.4-.8-4.8-1.7-7.1.5zM266.8 26.1c-3.4-2.2-6.7-1.4-9.9-1.1 3.2.2 6 1.8 9.9 1.1zM387.2 38.4c-3.2.1-5.3 0-6.8 2 2.5.6 5.1-.1 6.8-2zM371.7 21.3c2.7 1.5 4.4 1.3 7.9.4-3.2-.9-5-.5-7.9-.4zM395.5 21.1c-1.8-.5-3.8-.7-5.7-.4-.9.1-1.5.5-1.1 1.3s1.4.6 2.2.7c1.7 1.5 2.8 0 4-.5.6-.3 1-1 .6-1.1zM400.6 21.1c-1-.1-1.5.4-1.4 1.2.1.8.8 1 2.2.9.4-.2 1.8-.6 1.7-.9-.2-.9-1.5-1.1-2.5-1.2zM170.1 27.3l5.2.1c-2.9-2.4-3.5-2.4-5.2-.1zM390.8 39.6c2.1.5 4.3.4 6.3-.4-2.8-.2-4.6-.8-6.3.4zM466.4 34.1c.2.2.3.6.5.6.4.1.7 0 1-.3.3-.4 0-.8-.7-.8-.3 0-.5.3-.8.5zM417.1 26.4c0-.2-.5-.3-.8-.5-.3.1-.8.3-.8.5 0 .3.2.6.4.7.7.1 1.3-.1 1.2-.7zM451.7 35c.4-.1.7-.2 1-.4l-1-.4c-.3.1-.7.3-1 .4.3.2.7.3 1 .4zM446.5 35c.4 0 .7-.2 1-.3-.3-.2-.6-.3-1-.4-.4 0-.7.2-1.1.3.5.2.8.3 1.1.4zM409.6 27.4c1-.1 2.8.2 2.8-.4-.1-1.2-1.8-.5-2.8-.6l-2.6.1s-.1 0-.1-.1c-1.8-.1-3.6.2-5.3.9h5.2v.1h2.8zM191.5 36.1c-.1-.3-.2-.7-.2-1-1 .4-.9.7.2 1zM97 34.4c.5 1 2.1.6 3.2.7v-1.9h-1.3c-.9.2-2.4.2-1.9 1.2zM113.6 34.1c1.9-.2 4.2.5 5.6-1-1.9.2-4.1-.5-5.6 1zM124.7 34.1l-1.5-1.2c-1.4 1.7.6 1.1 1.5 1.2zM206.4 37l-1.6-1c.3.6.9 1 1.6 1zM93.6 28.4h-8c2.5 1.5 5.6 1.5 8 0zM29.8 32.2c.2.2.3.6.5.6.4.1.7 0 1-.3.2-.5 0-.8-.8-.8-.2 0-.4.3-.7.5zM80.7 33.8c-.1.1.1.5.2.7.3-.1.7-.2 1-.4.4-.2.2-.5-.2-.7-.4.2-.9.2-1 .4z" class="st0"/></g></g></svg>